<?xml version="1.0" encoding="iso-8859-1"?>
<!-- Generator: Adobe Illustrator 19.0.0, SVG Export Plug-In . SVG Version: 6.00 Build 0)  -->
<svg version="1.1" id="Layer_1" xmlns="http://www.w3.org/2000/svg" xmlns:xlink="http://www.w3.org/1999/xlink" x="0px" y="0px"
	 viewBox="0 0 504.123 504.123" style="enable-background:new 0 0 504.123 504.123;" xml:space="preserve">
<g>
	<polygon style="fill:#1E81E2;" points="45.119,145.42 45.135,145.278 45.82,142.576 45.875,142.356 45.655,142.356 44.3,142.356 
		44.166,142.356 44.142,142.497 43.449,145.207 43.402,145.42 43.622,145.42 44.977,145.42 	"/>
	<polygon style="fill:#1E81E2;" points="7.782,138.386 7.712,138.22 7.538,138.323 5.506,139.678 5.333,139.788 5.474,139.945 
		6.16,140.623 6.231,140.694 6.341,140.662 8.373,139.969 8.554,139.93 8.476,139.756 	"/>
	<polygon style="fill:#1E81E2;" points="0.165,141.001 0,141.001 0,141.174 0,141.867 0,142.017 0.165,142.017 2.875,142.017 
		2.962,142.017 3.001,141.97 3.679,141.292 3.978,141.001 3.56,141.001 	"/>
	<circle style="fill:#1E81E2;" cx="233.236" cy="280.328" r="1.701"/>
</g>
<polygon style="fill:#004DA0;" points="411.908,231.113 411.861,231.207 410.506,233.925 410.435,234.082 410.585,234.145 
	411.947,234.815 412.05,234.878 412.128,234.791 414.177,232.759 414.232,232.712 414.232,232.633 414.232,231.278 414.232,231.113 
	414.05,231.113 412.018,231.113 "/>
<g>
	<polygon style="fill:#1E81E2;" points="143.927,173.895 144.108,173.895 144.778,173.895 144.857,173.895 144.904,173.848 
		146.259,172.493 146.298,172.453 146.298,172.375 146.298,171.697 146.298,171.587 146.211,171.54 144.983,170.925 
		145.613,169.035 145.66,168.893 145.534,168.838 143.006,167.57 145.589,164.34 145.881,163.97 145.424,164.064 142.029,164.742 
		141.982,164.758 141.95,164.789 137.192,168.854 137.058,168.972 137.184,169.098 137.799,169.712 137.153,171.634 
		137.074,171.815 137.287,171.847 140.595,172.524 141.233,173.8 141.281,173.895 141.383,173.895 142.06,173.895 142.155,173.895 
		142.202,173.816 143.51,171.863 143.927,171.863 143.927,173.729 	"/>
	<polygon style="fill:#1E81E2;" points="134.081,173.052 134.081,172.438 133.766,172.958 131.742,176.36 131.568,176.605 
		131.875,176.605 133.916,176.605 133.986,176.605 134.034,176.557 134.711,175.88 134.829,175.754 134.711,175.636 
		134.081,175.021 134.081,173.729 	"/>
	<polygon style="fill:#1E81E2;" points="92.507,112.864 92.554,112.864 92.601,112.833 97.319,109.462 100.683,108.784 
		100.927,108.761 100.793,108.54 99.43,106.492 99.383,106.421 99.289,106.421 95.224,106.421 95.161,106.421 95.122,106.468 
		90.372,109.848 90.325,109.863 90.317,109.911 88.954,112.62 88.828,112.864 89.104,112.864 	"/>
	<polygon style="fill:#1E81E2;" points="101.179,104.649 101.226,104.728 101.329,104.728 101.998,104.728 102.03,104.728 
		102.061,104.728 109.536,102.002 109.647,101.971 109.647,101.853 109.647,100.498 109.647,100.309 109.458,100.324 
		103.337,101.002 103.29,101.002 103.274,101.033 100.557,103.066 100.431,103.16 100.502,103.278 	"/>
	<polygon style="fill:#1E81E2;" points="116.342,107.453 116.382,107.39 117.744,106.035 117.862,105.925 117.744,105.807 
		117.059,105.114 117.012,105.082 116.941,105.082 116.342,105.082 115.83,104.554 116.382,104.003 116.673,103.712 
		116.271,103.712 115.586,103.712 115.554,103.712 115.523,103.727 111.521,105.051 108.867,103.727 108.804,103.696 
		108.741,103.727 105.338,105.082 105.228,105.129 105.228,105.232 105.228,105.925 105.228,106.035 105.346,106.082 
		107.126,106.665 105.96,107.831 105.275,108.509 104.992,108.8 105.409,108.8 107.441,108.8 107.481,108.8 107.512,108.776 
		110.198,107.453 116.271,107.453 	"/>
	<polygon style="fill:#1E81E2;" points="116.185,102.002 116.256,102.034 116.326,102.002 118.343,101.325 118.39,101.309 
		118.414,101.293 119.776,99.931 119.958,99.773 119.737,99.663 118.374,98.985 118.272,98.93 118.185,99.017 116.901,100.293 
		114.964,99.647 114.735,99.576 114.735,99.82 114.735,101.175 114.735,101.278 114.83,101.325 	"/>
	<polygon style="fill:#1E81E2;" points="123.644,108.099 123.77,108.17 123.872,108.052 125.905,105.342 125.991,105.216 
		125.889,105.114 124.534,103.775 124.408,103.648 124.29,103.775 123.053,105.003 121.139,103.081 120.927,102.877 120.856,103.16 
		120.178,105.878 120.147,106.004 120.249,106.067 	"/>
	<polygon style="fill:#1E81E2;" points="126.952,102.554 127.086,103.192 127.283,102.569 127.976,100.545 127.984,100.498 
		127.976,100.45 127.291,97.725 127.181,97.3 126.968,97.709 126.291,99.064 126.267,99.111 126.283,99.174 	"/>
	<polygon style="fill:#1E81E2;" points="140.705,102.018 140.879,102.018 140.879,101.853 140.879,97.788 140.879,97.725 
		140.855,97.694 138.815,94.299 138.492,93.771 138.492,94.385 138.492,95.015 136.499,97.678 136.468,97.709 136.46,97.757 
		135.782,101.821 135.751,102.018 135.964,102.018 	"/>
	<polygon style="fill:#1E81E2;" points="131.033,107.359 131.033,108.635 131.033,108.745 131.119,108.776 135.2,110.816 
		135.247,110.832 135.326,110.832 137.996,110.155 141.351,110.832 141.501,110.864 141.548,110.73 142.226,108.682 142.273,108.54 
		142.131,108.461 138.728,107.114 138.665,107.083 138.594,107.13 137.303,107.776 133.404,106.484 133.404,105.232 
		133.404,105.098 133.278,105.082 129.93,104.405 129.284,103.775 128.992,103.467 128.992,103.877 128.992,105.925 
		128.992,106.004 129.063,106.067 	"/>
	<polygon style="fill:#1E81E2;" points="117.665,114.897 117.697,114.881 117.744,114.849 119.776,112.817 119.832,112.77 
		119.832,112.699 119.832,110.667 119.832,110.462 119.635,110.494 115.554,111.171 115.436,111.187 115.413,111.313 
		114.735,115.369 114.704,115.637 114.948,115.574 	"/>
	<polygon style="fill:#1E81E2;" points="125.133,109.816 125.03,109.785 124.952,109.879 122.912,112.605 122.833,112.715 
		122.927,112.817 123.613,113.495 123.707,113.605 123.817,113.526 125.818,112.187 127.811,112.187 127.913,112.187 
		127.961,112.093 128.638,110.746 128.764,110.494 128.488,110.494 127.827,110.494 	"/>
	<polygon style="fill:#1E81E2;" points="93.184,116.606 92.845,116.606 93.042,116.866 95.074,119.591 95.137,119.647 
		95.224,119.647 102.66,119.647 105.362,120.324 105.409,120.34 105.448,120.308 110.206,118.961 110.356,118.93 110.324,118.772 
		109.647,115.385 109.647,112.699 109.647,112.526 109.473,112.526 107.488,112.526 104.125,110.509 104.015,110.446 
		103.928,110.541 102.754,111.714 102.172,109.926 102.116,109.785 101.959,109.816 97.044,111.171 96.902,111.218 96.91,111.36 
		97.067,113.203 95.224,113.203 95.043,113.203 95.043,113.376 95.043,114.723 95.043,114.912 95.224,114.912 98.493,114.912 
		99.06,116.606 	"/>
	<polygon style="fill:#1E81E2;" points="122.51,130.202 122.431,130.17 120.399,129.493 120.367,129.477 120.336,129.477 
		119.65,129.477 119.564,129.477 119.517,129.571 117.469,132.959 117.429,133.037 117.469,133.124 118.138,134.463 
		118.193,134.558 118.304,134.558 119.65,134.558 119.698,134.558 119.737,134.558 121.029,133.896 123.691,134.558 
		123.991,134.636 123.896,134.345 122.541,130.28 	"/>
	<polygon style="fill:#1E81E2;" points="146.779,132.604 146.92,132.494 151.001,129.115 151.127,128.989 151.016,128.863 
		146.33,123.514 147.653,120.222 147.692,120.127 147.621,120.032 143.549,115.298 143.525,115.267 143.478,115.251 
		140.091,113.896 139.981,113.865 139.91,113.944 139.248,114.605 134.766,117.157 134.766,116.834 138.784,112.817 138.91,112.699 
		138.784,112.573 138.106,111.896 138.027,111.817 137.933,111.864 134.53,113.219 134.475,113.25 134.459,113.298 131.883,117.756 
		131.395,116.771 134.065,112.108 134.207,111.848 133.916,111.848 129.835,111.848 129.772,111.848 129.725,111.896 
		127.685,113.944 127.653,113.975 127.646,114.007 126.968,116.031 126.944,116.094 126.968,116.141 128.323,119.544 
		128.354,119.623 128.433,119.631 137.736,122.955 135.129,127.523 135.105,127.555 135.105,127.571 134.467,130.154 
		130.521,130.154 130.458,130.154 130.402,130.217 129.725,130.879 129.701,130.911 129.686,130.958 129,132.99 128.906,133.266 
		129.197,133.218 132.529,132.541 135.751,134.463 135.105,136.369 135.066,136.495 135.184,136.574 139.256,139.299 
		139.469,139.433 139.516,139.173 140.154,135.377 141.966,136.574 142.005,136.606 142.06,136.606 142.738,136.606 
		142.848,136.606 142.903,136.511 144.928,132.431 144.983,132.328 144.896,132.25 143.604,130.958 144.171,128.713 
		146.676,132.447 	"/>
	<polygon style="fill:#1E81E2;" points="143.195,103.278 142.659,104.357 140.067,103.712 140.004,103.696 139.957,103.727 
		137.24,105.082 136.925,105.232 137.24,105.389 138.594,106.067 138.626,106.082 138.665,106.082 142.013,106.082 144.006,107.422 
		144.124,107.477 144.226,107.39 148.244,103.373 149.528,103.373 149.551,103.373 149.583,103.357 151.623,102.695 
		151.733,102.648 151.733,102.53 151.733,101.309 154.978,100.663 157.68,100.663 157.751,100.663 157.798,100.616 158.452,99.954 
		169.275,95.913 169.314,95.882 169.338,95.866 171.378,93.834 171.662,93.542 171.252,93.542 146.141,93.542 145.967,93.542 
		145.967,93.708 145.967,95.74 145.967,95.85 146.062,95.898 148.771,97.252 148.819,97.268 148.85,97.268 153.86,97.268 
		152.844,98.292 147.535,98.954 145.558,97.631 145.416,97.56 145.321,97.678 141.934,102.435 141.8,102.585 141.997,102.68 	"/>
	<polygon style="fill:#1E81E2;" points="42.858,155.715 42.78,156.062 42.094,158.771 42.086,158.834 42.118,158.897 44.15,162.284 
		44.197,162.371 44.3,162.371 44.977,162.371 45.143,162.371 45.143,162.206 45.143,158.818 45.143,158.755 45.119,158.708 
		43.079,156.006 	"/>
	<polygon style="fill:#1E81E2;" points="41.464,148.508 41.299,148.681 41.511,148.791 42.858,149.469 43.118,149.587 
		43.118,149.311 43.118,147.279 43.118,146.877 42.819,147.161 	"/>
	<polygon style="fill:#1E81E2;" points="41.023,152.832 42.386,151.461 42.504,151.343 42.386,151.233 41.7,150.556 41.417,150.264 
		41.417,150.682 41.417,151.312 40.755,152.635 	"/>
	<polygon style="fill:#1E81E2;" points="100.643,238.99 100.817,239.021 100.817,238.99 106.079,238.99 106.354,238.99 
		106.228,238.753 105.567,237.391 105.527,237.344 105.48,237.312 102.762,235.957 102.747,235.957 102.747,235.941 
		100.817,235.311 100.817,235.264 100.675,235.264 100.478,235.201 100.478,235.264 99.289,235.264 99.249,235.264 99.218,235.28 
		97.863,235.957 96.492,236.635 96.201,236.784 96.492,236.942 97.493,237.438 95.831,237.989 95.862,238.328 100.478,238.974 
		100.478,238.99 	"/>
	<polygon style="fill:#1E81E2;" points="196.813,137.188 196.986,137.267 201.736,139.315 201.815,139.323 201.886,139.299 
		208.675,135.912 208.77,135.849 208.77,135.755 208.77,134.4 208.77,134.345 208.723,134.298 206.698,131.588 206.62,131.493 
		206.525,131.509 200.507,132.848 199.215,131.556 199.144,131.509 199.05,131.509 196.332,132.187 196.049,132.281 
		196.254,132.478 198.199,134.432 196.899,137.031 	"/>
	<polygon style="fill:#1E81E2;" points="91.719,224.079 91.821,224.079 93.184,224.079 93.412,224.079 93.342,223.85 
		92.672,221.818 92.625,221.708 92.507,221.708 91.144,221.708 90.978,221.708 90.978,221.865 90.978,222.559 90.978,222.59 
		91.002,222.622 91.68,223.992 	"/>
	<polygon style="fill:#1E81E2;" points="88.718,238.478 88.647,238.541 87.969,239.202 87.796,239.392 88.009,239.478 
		90.726,240.833 90.797,240.88 90.845,240.849 92.893,240.171 93.011,240.14 93.011,240.022 93.011,239.328 93.011,239.187 
		92.869,239.171 88.789,238.478 	"/>
	<polygon style="fill:#1E81E2;" points="122.344,261.376 122.549,261.408 122.549,261.203 122.549,259.233 123.857,257.926 
		124.148,257.634 123.739,257.634 119.65,257.634 119.493,257.634 119.493,257.816 119.493,259.769 118.863,260.407 
		118.642,260.636 118.957,260.699 	"/>
	<polygon style="fill:#1E81E2;" points="142.178,400.096 141.895,399.805 141.895,400.223 141.895,402.924 141.895,402.987 
		141.942,403.05 142.612,403.728 142.919,404.019 142.919,403.602 142.919,400.892 142.919,400.821 142.864,400.774 	"/>
	<polygon style="fill:#1E81E2;" points="139.871,402.192 139.784,402.42 140.028,402.42 140.705,402.42 140.879,402.42 
		140.879,402.247 140.879,400.223 140.548,400.16 	"/>
	<polygon style="fill:#1E81E2;" points="211.188,163.434 211.165,163.466 211.165,163.513 210.464,165.53 210.377,165.837 
		210.676,165.758 213.386,165.081 213.417,165.081 213.433,165.065 216.143,163.71 216.214,163.679 216.229,163.592 
		216.875,160.323 217.427,160.323 217.592,160.323 217.592,160.158 217.592,158.818 217.592,158.74 217.537,158.692 216.182,157.33 
		216.135,157.298 216.064,157.298 214.843,157.298 214.819,157.204 214.67,157.298 214.489,157.298 214.512,157.361 
		213.276,157.976 213.252,157.991 213.228,158.007 212.59,158.637 211.992,158.637 211.921,158.637 211.873,158.692 
		211.188,159.354 211.149,159.417 211.149,159.48 211.149,160.851 211.149,160.914 211.188,160.977 211.826,161.591 
		211.826,162.804 	"/>
</g>
<g>
	<polygon style="fill:#004DA0;" points="278.536,202.401 278.623,202.354 280.655,200.992 280.521,200.684 277.142,201.354 
		276.645,201.464 277.094,201.677 278.449,202.354 	"/>
	<polygon style="fill:#004DA0;" points="312.422,317.649 312.667,317.728 312.643,317.468 311.958,310.016 311.958,309.945 
		311.91,309.914 310.556,308.543 310.493,308.496 310.43,308.496 309.752,308.496 309.658,308.496 309.61,308.59 305.546,316.018 
		304.908,316.664 301.544,318.003 301.466,318.035 301.45,318.113 300.087,322.863 300.079,322.911 300.087,322.942 
		300.765,326.313 300.765,326.928 298.086,330.268 298.031,330.331 298.047,330.386 299.41,337.191 299.425,337.247 
		299.481,337.294 301.505,338.649 301.584,338.696 301.663,338.664 305.727,337.31 305.822,337.278 305.837,337.207 
		310.603,321.603 310.603,321.587 310.603,321.556 310.603,317.034 	"/>
	<polygon style="fill:#004DA0;" points="364.883,259.084 364.686,258.714 364.583,259.123 363.906,261.833 363.229,263.865 
		363.213,263.897 363.221,263.944 363.898,268.001 363.937,268.253 364.15,268.127 367.553,266.094 367.632,266.047 
		367.632,265.945 367.632,263.912 367.632,263.881 367.608,263.834 	"/>
	<path style="fill:#004DA0;" d="M391.767,240.959l1.331,2.678l0.677,2.694l0.008,0.016l0,0l2.032,4.742l0.662,6.711l-0.662,2.001
		l-0.024,0.079l0.039,0.063l0.677,1.355l0.008,0.016l0.016,0.032l2.001,1.985v1.276v0.095l0.055,0.047l0.528,0.402l0.087,2.678
		h-0.504h-0.362l0.221,0.291l3.387,4.049l2.024,3.387l0.039,0.063l0.071,0.016l2.04,0.677l-0.039-0.016l1.371,0.693l0.244,0.126
		v-0.276v-1.355v-0.047l-0.024-0.032l-0.654-1.323v-1.308v-0.032l0,0l-0.685-4.08v-0.016l-0.024-0.055l-0.52-1.063l0.197,0.047
		l-0.362-0.37l-0.024-0.063h-0.032l-2.678-2.678l-0.055-0.047h-0.071h-0.591l-1.953-2.584v-0.63v-0.047l-0.032-0.047l-1.331-2.001
		v-9.366l0.575-0.583h0.488l0.638,1.938l0.039,0.11h0.126h1.961l4.695,4.679l0.63,1.276l-0.662,2.647l-0.047,0.213h0.213h0.677
		h0.063l0.047-0.047l6.79-6.105l0.063-0.047l-0.008-0.095l-0.677-8.137v-0.047l-0.031-0.047l-7.428-9.429l0.662-3.277l1.969-3.293
		h1.835l0.638,1.26l0.047,0.095h0.11h1.347h0.173v-0.158v-1.938l6.656-3.324h2.686h0.071l0.047-0.047l0.685-0.693l0.016-0.016
		l0.008-0.016l4.072-7.459l0.024-0.032v-0.032l0.685-6.766v-0.063l-0.024-0.047l-5.435-9.492l-0.016-0.031h-0.008l-3.34-3.356
		l0.654-6.538h1.205h0.236l-0.079-0.213l-0.677-2.048l-0.047-0.11h-0.11h-2.718h-0.079l-0.039,0.055l-1.26,1.26l-3.812-2.552
		l3.222-5.152l1.126,0.567v1.938v0.11l0.118,0.047l2.04,0.677l0.087,0.032l0.063-0.047l2.04-1.355l0.079-0.063v-0.047l0.354,0.709
		l0.039,0.095h0.118h1.867v2.552v0.063l0.047,0.047l0.685,0.677l0.126,0.126l0.118-0.126l0.567-0.567l2.198,1.568l0.331,2.985
		l0.008,0.047l0.055,0.047l1.315,1.323l0.67,2.001l0.024,0.031l0.032,0.032l0.662,0.693l0.055,0.047h0.071h1.371h0.063l0.055-0.047
		l2.04-2.048l0.047-0.047v-0.063v-2.048v-0.063l-0.032-0.032l-3.308-5.033h0.016l-0.11-0.142l-0.087-0.142h-0.008l-0.583-0.803
		v-0.016l-0.016-0.016l-0.677-0.662l-0.047-0.063h-0.079h-1.229l-0.622-2.521l0.646-1.292l0.032-0.063l-0.016-0.063l-0.67-2.662
		l0.662-1.985l0.031-0.079l-0.047-0.063l-0.583-0.953l0.488-0.158l0.189-0.063l0,0l1.804-0.599l2.662,0.662l0.165,0.032l0.039-0.165
		l1.363-6.766v-0.032v-0.016l-0.677-7.475l-0.016-0.032l-0.008-0.032l-6.112-10.169l-0.032-0.047l-0.047-0.032l-4.75-2.032
		l-0.102-0.047l-0.063,0.063l-1.946,1.292l-4.49-3.198l1.89-1.89l0.055-0.063v-0.079l-0.677-7.326l9.956-2.647l1.292,1.276
		l0.102,0.11l0.11-0.079l4.088-2.71l0.284-0.197l-0.331-0.11l-1.875-0.63l1.245-4.356l2.513,1.89l0.268,0.197v-0.339v-3.505
		l3.742,5.601v5.372v0.047l0.032,0.047l4.758,6.782l0.008,0.016l0.008,0.016l7.467,6.782l0.299,0.244v-0.37v-2.725v-0.016
		l-0.016-0.032l-1.371-4.049v-2.001v-0.063l-0.016-0.047l-1.292-1.906l0.591-0.583l0.15-0.158l-0.165-0.11l-2.048-1.355
		l-0.032-0.032h-0.095h-1.182v-1.182v-0.095l-0.063-0.047l-2.67-2.001l-0.638-3.214l3.245-1.938h1.308h0.158l0.024-0.142l0.67-5.404
		l1.339-2.001l0.032-0.047v-0.047v-1.355v-0.228l-0.221,0.079l-1.977,0.646l-3.875-1.938l0.63-1.89l0.032-0.063l-0.032-0.063
		l-0.559-1.111h2.434l7.452,1.339l0.362,0.079l-0.189-0.323l-2.725-4.742l-0.047-0.11l-0.118,0.016l-6.073,0.677l-12.193-4.064
		l-0.024-0.016h-0.039l-8.145,0.693l-0.158,0.016v0.158v1.213l-2.458,0.63l-0.607-1.245l-0.063-0.126l-0.134,0.032l-8.074,2.016
		l-4.695-3.34l-0.063-0.047l-0.071,0.016l-6.073,1.355l-6.743-2.032h-0.024h-0.032h-8.137h-0.047h-0.024l-6.798,3.403l-0.095,0.047
		v0.11v1.15l-15.415-2.678c-0.016,0-8.16-0.677-8.16-0.677l-0.181-0.016v0.181v1.757l-3.82-1.906l-0.102-0.063l-0.087,0.079
		l-4.293,3.679l0.488-1.465l0.055-0.158l-0.165-0.063l-1.646-0.536l3.71-1.859l0.095-0.032v-0.11v-3.403v-0.11l-0.095-0.047
		l-4.096-2.032l-0.047,0.031l-0.079,0.032l-3.293,1.308l-1.953-1.953l-0.055-0.047h-0.071h-2.032h-0.079l-0.055,0.079l-1.355,2.032
		l-0.039,0.047v0.047v0.677v0.047l0.024,0.032l0.559,1.111h-8.554h-0.055l-0.047,0.032l-8.137,5.427l-0.134,0.079l0.063,0.142
		l0.685,1.339l0.677,2.032l0.024,0.095l0.102,0.032l3.324,0.662l1.764,2.922l-1.607-0.536l-0.134-0.047l-0.079,0.142l-0.52,1.048
		l-1.213-2.402l-0.024-0.079l-0.071-0.016l-4.758-1.355l-0.102-0.032l-0.071,0.079l-0.599,0.599l-3.285-1.323l-0.236-0.095v0.26
		v3.387v0.079l0.047,0.047l3.403,3.387l0.047,0.047h0.079h2.67l10.051,5.372v0.953l-3.135-1.89l-0.26-0.165v0.291v2.245
		l-3.104-3.726l-0.016-0.016l-0.047-0.016l-3.395-1.371l-0.11-0.032l-0.079,0.079l-1.363,1.355l-0.047,0.047v0.079v1.89
		l-2.914,0.567l1.205-2.387l0.016-0.047v-0.032v-1.355v-0.095l-0.102-0.047l-1.315-0.662l-2.009-3.356l-0.016-0.016l-0.016-0.016
		l-0.654-0.646l-2.032-4.064l-0.039-0.079h-0.118h-3.387h-0.126l-0.039,0.11l-1.355,3.387l-0.055,0.095l0.087,0.079l3.907,4.553
		l-1.717,0.567l-2.647-1.985l-0.016-0.032h-0.055h-3.403h-0.165v0.165v1.969l-0.583,0.583h-1.213l-0.63-0.63l-0.079-0.079
		l-0.095,0.032l-5.341,2.001l-1.276-1.276l-0.102-0.11l-0.118,0.095l-6.68,4.663l-0.52-0.52v-1.292v-0.095l-0.071-0.047
		l-2.718-2.032l-0.26-0.213v0.354v5.246h-1.859h-0.079l-0.047,0.047l-2.04,2.048l-0.047,0.047v0.063v1.15l-3.198-0.63l-0.087-0.032
		l-0.079,0.079l-0.67,0.677l-0.15,0.142l0.173,0.126l1.851,1.229l-1.111,1.126l-3.222-1.946l-2.513-5.033l6.42,1.922l0.055,0.016
		l0.071-0.031l1.355-0.677l0.039-0.016l0.032-0.047l1.355-2.032l0.087-0.142l-0.134-0.095l-5.419-4.064l-0.039-0.032h-0.047
		l-4.072-0.693h-0.055l-0.055,0.032l-1.284,0.63l-3.293-1.308l-1.339-1.339l-0.032-0.032l-0.063-0.016l-3.387-0.677h-0.016h-0.016
		h-2.725h-0.055l-0.047,0.032l-2.686,2.016l-3.356,0.677h-0.047l-0.039,0.047l-0.677,0.677l-2.024,1.323l-0.016,0.016v0.016
		l-0.677,0.677l-2.016,1.339l-0.039,0.016l-0.024,0.047l-0.677,1.339l-4.742,6.782l-0.039,0.032v0.063v1.859h-1.859h-0.063
		l-0.047,0.047l-4.758,4.064l-0.071,0.063l0.016,0.11l1.347,6.766v1.339v0.126l0.134,0.032l2.718,0.677l0.095,0.032l0.071-0.079
		l3.23-3.214l3.285,7.247l0.063,0.126l0.142-0.047l2.718-0.662l0.079-0.031l0.039-0.079l1.339-3.356l1.339-1.339h0.008l0.008-0.016
		l2.718-3.387l0.118-0.142l-0.15-0.11l-2.623-1.953l1.308-3.907l3.356-2.678l0.039-0.032l0.016-0.047l1.993-5.325h1.142l0.591,1.182
		l-1.323,2.647v0.016H257.3l-0.662,2.001l-1.315,1.323l-0.079,0.063l0.024,0.095l0.677,4.742l0.016,0.095l0.071,0.047l2.725,1.355
		l0.071,0.032l0.071-0.032l5.396-2.016h1.229l0.559,1.126l-2.576,1.938l-3.348,0.662l-0.142,0.032v0.142v1.355v0.126l0.118,0.047
		l1.875,0.614l-0.583,1.772h-1.914h-0.165l-0.008,0.158l-0.079,1.52l-0.252,1.308l-1.008,1.922l-0.047,0.11l-2.072,0.614
		l-0.291-0.788l-0.039-0.126l-0.15,0.016l-4.08,0.693h-0.008h-0.016l-4.088,1.355l-0.102,0.047v0.126v0.465l-3.206-0.63
		l-0.031-0.016l-0.039,0.016l-1.969,0.646l-1.898-1.245v-1.922l0.677-2.016l0.016-0.032v-0.016v-2.725v-0.402l-0.291,0.291
		l-2.032,2.032l-0.024,0.016l-0.008,0.032l-1.371,2.71l-0.032,0.079l0.032,0.079l0.662,1.323v0.465v0.165v0.165v0.52v0.063
		l0.063,0.047l0.551,0.551l-0.528,0.536l-1.977,0.654l-0.118,0.047l0,0l-1.914,0.63l-0.047,0.016l-0.031,0.032l-1.977,1.985h-0.614
		h-0.071l-0.047,0.047l-0.559,0.567l-0.032-0.032l-0.102,0.158l-0.11,0.11l0.024,0.016l-1.26,1.89l-1.315,0.662l-0.039,0.016
		l-0.024,0.031l-1.347,2.016l-1.922,1.276l-1.26-0.63l-0.047-0.032h-0.031h-0.685h-0.118l-0.039,0.126l-0.646,1.922h-1.158
		l-0.622-0.63l-0.063-0.047h-0.063h-0.677h-0.134l-0.032,0.11l-0.685,2.048l-0.016,0.016v0.031v1.355v0.165h0.173h1.961l2.599,3.261
		l-0.646,1.938l-0.016,0.032v0.032v3.781c-0.811-0.165-2.883-0.599-2.883-0.599l-3.852-0.662c0.008,0-1.812-0.417-1.812-0.417
		l-0.134-0.032l-0.063,0.126l-0.63,1.15l-1.252,0.323l-0.134,0.016v0.142l-0.032,2.678l0,0v0.181v0.165l0,0v2.458l-1.268,4.647
		l-0.016,0.016v0.032v0.662v0.063l0.055,0.047l0.607,0.646l0.622,3.277l0.039,0.165l0.165-0.047l2.458-0.63l1.205,1.89l0.024,0.047
		l0.047,0.016l1.284,0.662l0.142,0.079l0.087-0.142l1.237-1.922l2.875-0.504h0.039l0.047-0.032l2.111-1.89l1.568-1.678l0.063-0.063
		l-0.024-0.079l-0.536-3.064l0.835-1.788l1.946-0.874h0.599h0.047l0.039-0.031l1.284-0.662l0.055-0.047l0.031-0.079l0.591-2.45
		h0.173h0.095l0.063-0.11l0.622-1.245l3.946,0.662l0.071,0.016l0.039-0.047l2.009-1.323h1.308h0.039l0.039-0.016l1.284-0.646
		l1.237,0.63l3.379,4.71l0.008,0.016l0.024,0.031l4.064,2.694l0.63,0.63l0.677,4.017l0.016,0.158h0.142h0.685h0.087l0.071-0.095
		l1.347-2.032l0.047-0.063l-0.032-0.079l-0.63-1.906l1.197-0.583h1.308h0.173v-0.165v-0.677v-0.095l-0.071-0.047l-2.718-2.032
		l-0.047-0.032h-0.055h-0.614l-0.622-0.63l-0.024-0.016l-0.016-0.016l-3.34-2.001l-1.323-3.954l0.591-1.757l0.15,0.11l0.071,0.047
		l0.087-0.016l0.032-0.016l0.811,1.048l0.11,0.165l0.15-0.142l0.488-0.504l0.67,1.386l0.016,0.031l0.024,0.016l1.449,1.449
		l1.197,1.032h0.008l0.008,0.016l2.599,1.583l0,0l0.032,0.032l0.551,0.339l-0.047-0.095l0.181,0.095h0.016l1.331,0.709v2.615v0.016
		l0.008,0.016l0.685,2.725l0.024,0.126h0.142h0.567l1.308,2.615l0.063,0.11h0.102h1.969l0.496,0.504l-0.496,0.488h-0.614h-0.236
		l0.079,0.228l0.677,2.048l0.032,0.11h0.142h1.339h0.063l0.047-0.032l2.04-1.355l0.087-0.063v-0.079v-0.693v-0.047l-0.047-0.047
		l-2.001-2.662v-1.922l1.938-1.922h3.316h0.173v-0.165v-0.11h0.008l0.992-0.677l1.867-0.756l0.173-0.079l-0.102-0.181l-1.583-2.324
		v-1.812h0.496h0.134l0.032-0.11l0.654-1.953l0.52-0.11l0.071,0.181l0.142-0.229l0.11-0.016l-0.032-0.11l2.607-4.246l2.946,0.63
		l-0.213,1.016l-0.032,0.095l0.071,0.063l1.615,1.788l0.095,0.11l0.126-0.079l2.718-1.694l0.158-0.11l-0.11-0.142l-1.709-2.418
		l4.829-0.772l-0.969,4.096l-0.016,0.11l0.095,0.063l4.324,2.891l2.804,2.048l-0.071,1.969l-7.263,0.662l-1.993-1.323l-0.055-0.047
		l-0.079,0.032l-8.129,2.032l-1.835-0.095h-0.071l-0.055,0.047l-1.52,1.449l-2.725,2.71l-0.102,0.095l0.079,0.126l2.024,3.371
		l0.67,2.678l0.039,0.142h0.126h1.292l1.308,1.308l0.079,0.063l0.079-0.016l2.725-0.677l0.047-0.016l0.039-0.031l0.599-0.599
		l3.285,1.308l0.039,0.016h0.047l3.962-0.662l0.599,1.197v2.584v0.11v0.26v1.048l-0.614,1.213h-0.016l-0.032,0.11l-0.118,0.244
		h0.016l-1.898,5.081h-0.559h-0.039l-0.039,0.016l-1.205,0.599l-0.599-1.197l-0.039-0.079l-0.079-0.016l-3.419-0.677l-0.087-0.032
		l-0.071,0.063l-1.961,1.969l-5.892-1.969l-0.008-0.047h-0.142l-0.205-0.063v0.063h-3.111l-0.63-1.26l-0.047-0.095h-0.11h-3.403
		h-0.039l-0.031,0.016l-1.355,0.677l-0.071,0.031l-0.032,0.063l-0.67,2.048l-0.024,0.063l0.031,0.063l0.607,1.213l-1.134,0.551
		l-6.711-4.017l-0.016-0.016h-0.032l-5.404-1.371l-3.293-1.308v-1.142l1.26-0.614l0.102-0.063v-0.095v-4.758v-0.095l-0.087-0.047
		l-2.032-1.355l-0.063-0.047l-0.095,0.016l-2.016,0.677l-10.153,0.677h-0.032h-0.031l-6.711,2.718h-6.081h-0.071l-0.047,0.063
		l-6.12,6.089l-0.024,0.032l-0.008,0.047l-1.355,5.372l-4.687,4.033l-1.3,0.646l-0.071-0.016l-0.031,0.063l-0.488,0.244l0.354,0.016
		l-4.647,9.295l0,0v0.016l-2.001,5.309h-0.047v0.142l-0.079,0.197h0.079v1.182v0.047l0.016,0.032l0.662,1.323l0.677,6.034
		l-1.339,3.356l-1.355,3.403l-0.047,0.095l0.079,0.079l1.308,1.323v1.953v0.197v0.985h-0.11l0.11,0.213v0.126h0.071l0.63,1.26
		l0.008,0.016v0l1.347,2.017h0.008l2.647,4.632l-0.031,0.032l0.11,0.11l0.095,0.165l0.047-0.032l1.89,1.89l1.363,2.032h0.008
		l0.016,0.016l0.614,0.614l-0.016,0.016l0.087,0.063l0.213,0.213l0.008-0.063l4.529,3.245l1.347,1.339l0.087,0.079l0.118-0.047
		l1.331-0.662l3.356-0.677h4.6l0.008,0.016l0.142-0.016h0.181v-0.016l5.081-0.646v0.142l0.228-0.158l0.11-0.016v-0.063l1.914-1.276
		h1.812v0.047l0.189-0.047h0.165l-0.008-0.047l2.434-0.599l1.977,4.6l0.063,0.126l0.126-0.016l3.986-0.662l2.631,3.293l0.646,1.292
		l-0.654,2.631l-0.008,0.016l-1.355,4.758l-0.032,0.063l0.055,0.063l4.064,6.766v0.016l1.103,1.938l0.473,1.402l-0.024,0.016
		l0.063,0.11l0.079,0.228l0.031-0.032l0.181,0.291l0.047,0.11l0.772,1.355l0.63,1.315v3.34v0.016l0.008,0.016l1.347,8.736
		l-1.993,2.662l-0.039,0.047v0.063v3.954l-1.268,0.63l-0.087,0.047v0.11v2.536v0.165v0.158v1.89v0.047l0.032,0.047l2.702,4.049
		l4.663,18.708v0.016l0.008,0.016l0.772,1.599l1.347,4.064c0-0.016,1.189,4.758,1.339,5.341l-0.646,1.308l-0.032,0.063l0.016,0.063
		l1.355,4.742l0.039,0.126h0.134h2.032h0.079l0.047-0.047l1.323-1.323l9.452-2.017h0.024l0.016-0.016l1.363-0.677l0.008-0.016h0.016
		l2.718-2.048h0.008l0.008-0.016l0.685-0.677l0.016-0.016h0.008l3.395-5.427c-0.016,0.016,2.024-2.71,2.024-2.71l0.032-0.032
		l0.008-0.047l0.677-4.726l0.662-2.001l1.284-1.26h1.969h0.102l0.039-0.095l0.685-1.371l0,0l0.016-0.016l1.355-4.064l0.008-0.047
		l-0.008-0.063l-1.347-5.404v-1.26l0.575-0.583h1.292h0.102l0.047-0.095l0.67-1.323l0.662-0.662c0,0,4.876-4.261,5.372-4.695h1.3
		h0.102l0.047-0.11l0.677-1.339l0.016-0.047v-0.016l0.677-6.782l0.008-0.047l-0.024-0.047l-1.331-2.678v-3.261v-0.095v-0.291v-1.048
		v-0.079l-0.063-0.047l-0.622-0.63l-0.677-5.372v-0.016l-0.008-0.032l-0.662-1.969l1.323-3.293l0.646-0.662l0.063-0.047v-0.079
		v-2.662l1.331-2.678l1.3-1.938h0.583h0.095l0.055-0.079l4.71-6.727l2.662-0.677l0.079-0.016l0.032-0.063l2.718-5.427l3.395-6.089
		v-0.016l0.016-0.032l2.048-10.153l0.008-0.11l-0.071-0.063l-0.677-0.677l-0.071-0.079l-0.095,0.047l-10.082,3.356l-1.182-1.182
		l0.032-0.047l-0.158-0.079l-0.181-0.126l-0.032,0.047l-1.134-0.567v-1.245v-0.047l-0.016-0.032l-0.607-1.229l0,0l-0.079-0.126
		l-0.087-0.165l0,0l-0.583-1.182l-0.024-0.047l-0.039-0.032l-2.017-1.339l-2.71-2.694l-0.055-0.063h-0.071h-1.213l-1.292-5.183
		l0.016-0.016l-0.047-0.095l-0.055-0.244l-0.039,0.016l-1.252-3.151v-1.323v-0.032l-0.024-0.047l-2.024-4.049l-0.607-1.812h0.055
		l-0.134-0.228l-0.039-0.095h-0.016l-7.404-13.462l-0.528-2.095l2.284,2.276l0.221,0.213l0.063-0.307l0.654-3.245h1.048v5.246v0.11
		l0.095,0.047l1.308,0.662l3.371,6.727l0.024,0.047l0.055,0.031l1.292,0.646l1.331,6.018l0.008,0.047l0.024,0.032l7.436,9.444v2.584
		l-0.032,0.047l0.032,0.063v0.449l0.134-0.181l1.221,2.45v1.323v0.032l0.024,0.032l0.677,1.355l0.008,0.032l0.024,0.032l0.677,0.677
		l0.055,0.047h0.063h0.693h0.024l0.032-0.016l7.467-2.71h0.016l0.016-0.016l6.105-4.08l0.087-0.047v-0.095v-1.292l0.567-0.567h1.166
		l0.032,0.095l0.15-0.095h0.181l-0.032-0.11l3.962-2.631l0.032-0.032l0.016-0.032l6.112-9.492l0.063-0.11l-0.087-0.095l-5.427-6.105
		l-0.685-0.677l-1.363-1.355l-0.039-0.047h-0.079h-0.677h-0.102l-0.047,0.079l-1.993,3.308h-4.474v-2.536v-0.079l-0.063-0.047
		l-1.347-1.355l-0.205-0.197l-0.087,0.26l-1.016,3.08v-1.662v-0.063l-0.039-0.031l-0.882-1.339l1.189,0.158l0.205,0.031
		l-0.016-0.213l-0.126-1.434l-0.024-0.142l-0.126-0.031l-1.402-0.244l-0.221-0.032l0.024,0.213l0.142,1.166l-0.126-0.165
		l-2.702-5.404l-0.614-2.489h2.41l2.662,4.001l0.024,0.032l0.024,0.016l2.04,1.355l0.047,0.031h0.047h1.292l3.356,2.678l0.102,0.095
		l0.11-0.095l2.599-1.938l0.551,0.551l1.347,2.678l0.055,0.11h0.102h3.379l3.915,0.646v0.031h0.165l0.173,0.032v-0.032h7.231
		l3.237,3.23l-0.126,0.158h0.284l0.087,0.095l0.071-0.095h1.875l0.496,0.504l-1.213,1.245l-0.134,0.11l0.134,0.126l3.395,3.387
		l0.047,0.063h0.071h1.355h0.063l0.063-0.063l0.685-0.662l0.024-0.032l0.008-0.047l0.638-1.922h1.079l0.677,7.31v0.032l0.008,0.016
		l4.072,10.847c0,0,1.26,3.757,1.355,4.049v2.001v0.095l0.063,0.063l1.993,1.308l1.339,5.372l0.016,0.047l0.032,0.032l0.685,0.677
		l0.047,0.047h0.071h1.363h0.079l0.071-0.079l2.024-3.387l0.662-0.662l0.047-0.047l0.008-0.047l0.677-6.782c0-0.016,0-0.693,0-0.693
		v-0.016v-0.016l-0.662-5.293l1.252-0.63l0.032-0.016l0.008-0.016l0.677-0.677l0.016-0.016l0.008-0.016l1.347-2.032l0.67-0.662
		l0.016-0.016l0.016-0.016l2.702-5.404l1.221-1.213l0.559,0.551l0.165,0.165l0.11-0.213l1.339-2.694l0.662-0.662l0.047-0.047v-0.063
		v-1.197h1.709h0.165h0.165h1.859h0.165v-0.165v-1.859h1.15l1.229,0.614v2.615v0.032l0.016,0.032l0.622,1.245l-0.031,0.032
		l0.079,0.095l0.071,0.26l0.087-0.095l5.262,5.923v4.001v0.126l0.118,0.031l2.048,0.693l0.118,0.016l0.071-0.095l1.922-2.552
		L391.767,240.959z M308.374,196.62h-2.591l-1.961-3.261l0.67-4.766l0.008-0.063l-0.039-0.063l-1.686-2.434l-0.008-0.016
		l-3.718-6.246l-0.654-2.584l1.52-1.197l4.309-2.15l3.875,2.095l-0.819,2.072l-1.804-0.536l-0.11-0.031l-0.071,0.079l-1.859,2.127
		l-0.095,0.095l0.079,0.11l3.742,4.907l0.677,1.016l0.071,0.095l0.11-0.016l1.339-0.244l1.583,1.969l-1.591,0.827l-0.118,0.079
		l0.024,0.126l1.827,7.373L308.374,196.62z M319.26,179.298l-0.055-0.016l-0.024,0.158l-0.102,0.165l0.079,0.016l-0.299,1.953
		l-2.82-0.52l0.165-3.111l0.63-0.803l1.284-1.126l1.615,2.458L319.26,179.298z M284.554,283.376l-0.063,0.11l-0.165,0.158
		l0.071,0.032l-1.245,2.505l-1.276,0.63h-1.867l-0.607-1.827l0.551-0.536h0.032l0.039-0.079l0.268-0.276h-0.134l1.189-2.402
		l1.906-0.63l1.245,0.614l0.599,1.197l-0.504,0.52L284.554,283.376z M275.291,289.678l0.055-0.37l0.977,0.48v3.97v0.016v0.016
		l1.126,4.474l-2.15-3.198v-5.388H275.291z"/>
	<polygon style="fill:#004DA0;" points="432.136,219.802 432.112,219.723 432.041,219.699 430.679,219.022 430.49,218.911 
		430.434,219.124 429.765,221.834 429.749,221.865 429.765,221.913 430.434,224.638 430.442,224.646 430.442,224.662 
		431.128,226.016 431.277,226.308 431.427,226.016 432.79,223.299 432.813,223.252 432.798,223.189 	"/>
</g>
<g>
	<polygon style="fill:#1E81E2;" points="218.624,158.188 218.656,158.299 218.782,158.299 219.971,158.299 219.971,160.158 
		219.971,160.189 219.979,160.221 220.585,162.032 218.782,162.032 218.616,162.032 218.616,162.206 218.616,164.915 
		218.616,165.018 218.711,165.065 219.821,165.616 217.324,167.483 217.293,167.515 217.261,167.538 216.584,168.909 
		216.474,169.161 216.741,169.161 217.427,169.161 217.458,169.161 217.49,169.129 220.176,167.806 221.491,167.806 
		221.672,167.806 221.672,167.633 221.672,167.129 224.894,167.129 224.965,167.129 225.012,167.066 225.69,166.388 
		225.713,166.372 225.729,166.325 227.092,162.946 227.115,162.867 227.076,162.788 222.358,155.392 223.019,152.745 
		223.019,152.73 223.019,152.714 223.019,152.036 223.019,151.942 222.956,151.879 220.995,150.587 220.995,149.311 
		220.995,149.146 220.806,149.146 219.459,149.146 219.357,149.146 219.301,149.248 217.261,153.99 217.238,154.053 
		217.261,154.108 	"/>
	<polygon style="fill:#1E81E2;" points="238.466,188.144 238.576,188.144 238.624,188.05 239.301,186.679 239.325,186.648 
		239.325,186.6 239.325,185.253 239.325,184.836 239.025,185.143 237.678,186.498 237.615,186.545 237.615,186.6 237.615,187.971 
		237.615,188.144 237.789,188.144 	"/>
</g>
<g>
	<polygon style="fill:#004DA0;" points="486.873,295.94 486.888,295.94 486.896,295.94 488.936,296.617 489.047,296.665 
		489.125,296.57 491.827,293.175 491.874,293.128 491.874,293.081 491.874,291.71 491.874,291.545 491.709,291.545 490.338,291.545 
		490.173,291.545 490.173,291.71 490.173,292.324 488.306,294.191 487.755,293.632 487.652,293.53 487.542,293.6 485.51,294.971 
		485.25,295.129 485.526,295.263 	"/>
	<polygon style="fill:#004DA0;" points="491.142,287.527 490.85,287.236 490.85,287.653 490.85,289 490.85,289.048 490.89,289.095 
		492.245,291.143 492.402,291.371 492.536,291.127 493.214,289.757 493.269,289.646 493.182,289.56 	"/>
</g>
<g>
	<polygon style="fill:#1E81E2;" points="115.736,396.741 115.696,396.646 115.586,396.646 115.35,396.646 115.058,396.064 
		114.735,396.142 114.735,396.82 114.735,396.985 114.909,396.985 115.137,396.985 116.106,398.939 116.429,398.852 
		116.429,398.175 116.429,398.143 116.413,398.096 	"/>
	<polygon style="fill:#1E81E2;" points="113.184,384.114 113.018,383.846 111.655,381.822 111.356,381.956 112.033,383.988 
		112.073,384.114 112.183,384.114 112.868,384.114 	"/>
	<polygon style="fill:#1E81E2;" points="113.9,389.203 113.711,388.636 113.034,386.603 112.861,386.068 112.711,386.603 
		112.372,387.801 112.333,387.895 112.419,387.974 113.443,388.817 	"/>
	<polygon style="fill:#1E81E2;" points="123.014,408.186 122.707,408.249 122.927,408.462 124.967,410.51 125.023,410.557 
		125.086,410.557 126.448,410.557 126.622,410.557 126.622,410.392 126.622,408.359 126.622,407.666 126.622,407.461 
		126.417,407.509 	"/>
	<polygon style="fill:#1E81E2;" points="119.776,403.484 119.729,403.436 119.65,403.436 118.304,403.436 117.894,403.436 
		118.185,403.728 120.218,405.76 120.336,405.878 120.462,405.76 121.139,405.083 121.265,404.957 121.139,404.831 	"/>
	<polygon style="fill:#1E81E2;" points="128.607,410.266 128.559,410.218 128.488,410.218 127.126,410.218 126.952,410.218 
		126.952,410.392 126.952,411.069 126.952,411.234 127.126,411.234 129.166,411.234 129.568,411.234 129.284,410.943 	"/>
	<polygon style="fill:#1E81E2;" points="129.323,404.846 129.3,404.728 129.182,404.775 128.937,404.618 128.969,404.846 
		127.078,405.484 126.952,405.524 126.952,405.634 126.952,406.311 126.952,406.359 126.968,406.39 127.598,407.635 
		127.008,408.233 126.921,408.312 126.968,408.422 127.653,409.785 127.701,409.88 127.811,409.88 129.701,409.88 129.701,409.895 
		129.843,409.88 130.04,409.88 130.04,409.848 134.617,409.202 134.766,409.171 134.766,409.037 134.766,408.359 134.766,408.265 
		134.688,408.202 	"/>
	<polygon style="fill:#1E81E2;" points="251.274,102.664 251.313,102.695 251.368,102.695 255.449,102.695 255.527,102.695 
		255.575,102.617 256.937,100.584 257.048,100.435 256.874,100.34 255.512,99.663 255.464,99.631 255.417,99.647 251.337,100.324 
		251.329,100.324 251.313,100.324 249.281,101.002 248.95,101.112 249.242,101.309 	"/>
	<polygon style="fill:#1E81E2;" points="241.711,103.278 241.727,103.31 241.743,103.326 243.105,104.68 243.192,104.775 
		243.295,104.712 244.547,104.082 245.083,104.633 245.083,105.893 244.421,107.894 244.366,108.036 244.508,108.115 
		247.217,109.462 247.414,109.556 247.454,109.359 248.131,106.665 250.147,103.987 250.25,103.853 250.116,103.743 
		246.721,101.033 246.642,100.97 246.54,101.018 245.216,101.679 241.184,101.679 240.908,101.679 241.034,101.923 	"/>
	<polygon style="fill:#1E81E2;" points="252.077,104.357 252.046,104.712 252.046,104.728 251.888,104.728 251.888,106.587 
		251.873,106.776 252.046,106.776 254.086,106.776 254.503,106.776 254.196,106.484 252.321,104.617 	"/>
</g>
<g>
	<polygon style="fill:#004DA0;" points="423.014,272.601 423.014,272.601 419.667,275.956 417.705,275.956 417.532,275.956 
		417.532,276.129 417.532,276.728 416.224,278.036 416.154,278.099 416.169,278.185 416.863,280.911 418.903,287.015 
		418.926,287.094 419.013,287.126 420.982,287.787 421.628,289.079 421.667,289.174 421.778,289.174 426.457,289.174 
		427.079,289.804 427.15,289.851 427.213,289.851 428.568,289.851 428.639,289.851 428.686,289.804 431.403,287.094 
		431.451,287.047 431.451,286.976 431.451,284.975 432.112,283.652 432.12,283.636 432.136,283.62 433.483,278.185 433.491,278.17 
		433.483,278.13 432.144,271.435 434.113,269.466 434.137,269.434 434.152,269.418 434.83,268.064 434.885,267.945 434.783,267.851 
		430.718,264.464 430.576,264.346 430.466,264.495 427.835,267.772 427.709,267.709 427.709,267.93 427.622,268.032 
		427.709,268.095 427.709,269.237 426.512,269.836 426.496,269.836 426.433,269.867 426.031,270.064 426.165,270.096 
		423.03,272.585 	"/>
	<polygon style="fill:#004DA0;" points="475.467,365.785 475.514,365.777 475.553,365.729 481.658,356.907 481.69,356.884 
		481.69,356.852 483.052,348.7 483.052,348.684 483.052,348.652 482.375,342.556 482.375,340.539 482.375,340.484 482.336,340.452 
		481.004,338.452 481.004,332.402 481.004,332.339 480.965,332.284 477.617,328.944 477.617,318.161 477.617,318.05 
		477.491,318.003 475.577,317.373 474.908,309.339 474.892,309.236 474.805,309.189 473.442,308.512 473.261,308.417 
		473.206,308.622 469.173,324.092 468,324.092 461.367,318.129 464.699,311.45 464.794,311.284 464.597,311.221 457.799,309.189 
		457.673,309.142 457.602,309.268 456.964,310.56 454.325,311.221 454.254,311.237 454.223,311.292 450.229,317.279 
		445.598,315.294 445.495,315.231 445.416,315.341 433.924,328.172 431.963,328.172 431.923,328.172 431.884,328.188 
		421.061,333.592 420.423,333.592 420.297,333.592 420.25,333.71 417.54,341.847 417.524,341.878 417.532,341.941 418.17,344.438 
		417.02,344.438 416.902,344.438 416.87,344.556 416.185,346.589 416.169,346.636 416.169,346.683 417.532,352.74 416.185,360.145 
		413.499,363.492 413.381,363.634 413.523,363.745 416.24,365.777 416.311,365.816 416.39,365.785 421.116,364.453 427.213,364.453 
		427.244,364.453 427.284,364.422 434.05,361.051 441.439,360.389 446.047,362.342 446.047,367.667 446.047,367.974 
		446.306,367.801 451.111,364.8 448.11,369.605 447.953,369.865 448.252,369.865 450.284,369.865 450.379,369.865 450.434,369.802 
		452.096,367.588 451.489,373 450.166,374.323 450.048,374.449 450.166,374.575 454.924,379.309 455.05,379.435 455.168,379.309 
		456.373,378.096 457.626,379.971 457.681,380.065 457.799,380.034 464.597,378.002 464.644,377.986 464.683,377.939 
		473.474,366.446 	"/>
	<polygon style="fill:#004DA0;" points="455.152,385.13 454.435,383.523 454.349,383.327 454.176,383.468 452.899,384.477 
		452.852,384.524 452.836,384.571 452.167,387.281 451.489,389.313 451.45,389.408 451.529,389.478 452.884,390.833 452.97,390.928 
		453.081,390.88 454.443,390.187 454.451,390.187 454.459,390.187 457.177,388.139 457.255,388.092 457.255,388.005 
		457.255,385.296 457.255,385.13 457.074,385.13 	"/>
	<polygon style="fill:#004DA0;" points="491.173,389.297 491.087,389.092 490.921,389.234 484.131,394.654 484.108,394.677 
		484.084,394.709 483.454,395.969 481.524,395.969 481.469,395.969 481.43,396.001 475.325,400.065 475.246,400.128 
		475.246,400.223 475.246,402.924 475.246,403.098 475.404,403.098 479.484,403.098 479.555,403.098 479.602,403.05 
		480.957,401.696 485.66,398.324 487.684,397.663 487.763,397.631 487.794,397.56 488.464,395.559 492.489,392.204 492.591,392.125 
		492.536,392.007 	"/>
	<polygon style="fill:#004DA0;" points="504.044,383.823 502.067,381.854 502.737,376.497 502.745,376.466 502.729,376.434 
		502.044,374.386 502.004,374.284 501.894,374.284 501.209,374.284 501.059,374.284 501.035,374.433 500.366,381.838 497.057,385.8 
		495.774,385.8 495.647,385.8 495.616,385.942 494.253,392.031 494.206,392.251 494.419,392.251 495.096,392.251 495.167,392.251 
		495.214,392.204 501.28,386.139 503.249,386.139 503.367,386.139 503.406,386.036 504.092,383.988 504.123,383.894 	"/>
	<polygon style="fill:#004DA0;" points="450.434,194.202 450.45,194.115 451.096,191.523 451.576,191.523 452.206,192.154 
		452.38,192.327 452.482,192.114 453.159,190.759 453.183,190.696 453.167,190.649 452.498,187.246 452.482,187.207 452.45,187.175 
		451.135,185.868 451.135,185.324 451.757,184.694 451.852,184.615 451.805,184.513 449.772,179.771 449.757,179.724 
		449.733,179.708 446.33,176.313 446.125,176.108 446.054,176.392 445.369,179.109 445.361,179.172 445.385,179.22 446.732,182.575 
		446.732,186.545 444.739,188.53 444.692,188.57 444.692,188.648 444.692,189.924 443.4,191.216 442.069,191.878 442.029,191.894 
		442.006,191.925 439.296,195.312 438.973,195.714 439.469,195.588 444.77,194.265 445.385,195.493 445.448,195.635 
		445.582,195.588 450.339,194.233 	"/>
	<polygon style="fill:#004DA0;" points="440.864,197.266 440.737,197.297 438.028,197.975 437.902,198.006 437.902,198.14 
		437.902,200.172 437.902,200.346 438.075,200.346 439.264,200.346 439.264,202.205 439.264,202.252 439.28,202.283 
		439.958,203.646 440.021,203.772 440.162,203.725 442.203,203.047 442.273,203.016 442.305,202.945 442.982,200.913 
		443.006,200.834 442.967,200.755 440.934,197.376 	"/>
	<polygon style="fill:#004DA0;" points="443.628,195.99 443.51,195.864 443.384,195.99 442.021,197.344 441.927,197.431 
		441.998,197.557 443.353,199.589 443.573,199.912 443.668,199.542 444.345,196.817 444.369,196.73 444.298,196.667 	"/>
	<polygon style="fill:#004DA0;" points="442.652,172.989 442.652,173.052 442.652,175.754 442.652,175.927 442.833,175.927 
		444.18,175.927 444.274,175.927 444.337,175.833 444.96,174.572 447.567,174.572 447.653,174.572 447.716,174.509 449.749,171.8 
		449.835,171.681 449.733,171.571 447.015,168.862 446.984,168.838 446.944,168.822 442.187,167.467 441.982,167.404 
		441.982,167.633 441.982,169.649 441.982,169.697 441.998,169.728 443.29,172.343 442.691,172.926 	"/>
</g>
<g>
	<polygon style="fill:#1E81E2;" points="200.318,123.498 199.798,123.388 193.378,122.096 196.364,119.71 196.939,120.277 
		196.955,120.292 196.97,120.292 201.027,123.018 201.184,123.112 201.279,122.955 203.319,119.576 203.382,119.434 
		203.264,119.339 200.554,117.315 200.46,117.236 200.373,117.299 199.263,117.851 199.263,116.267 204.524,116.267 
		204.635,116.267 204.674,116.157 207.392,110.068 207.502,109.816 207.242,109.816 202.736,109.816 203.941,106.807 
		207.864,108.115 208.093,108.186 208.093,107.941 208.093,103.877 208.093,103.712 207.919,103.712 204.69,103.712 204.69,102.648 
		210.684,100.647 210.802,100.616 210.802,100.498 210.802,99.899 211.385,99.308 212.63,99.308 213.953,99.954 214.048,100.001 
		214.126,99.954 216.151,98.607 216.379,98.45 216.151,98.308 212.764,96.284 212.693,96.236 212.614,96.268 204.572,98.938 
		204.154,98.528 207.967,97.268 207.919,96.929 200.31,96.929 208.644,94.559 208.841,94.496 208.754,94.314 208.069,92.96 
		208.03,92.865 207.919,92.865 177.373,92.865 177.31,92.865 177.262,92.912 173.261,96.236 171.307,95.575 171.229,95.559 
		171.166,95.606 163.052,101.002 155.624,101.679 155.412,101.695 155.483,101.908 156.16,103.94 156.168,103.971 156.199,104.003 
		156.885,104.68 156.932,104.728 157.003,104.728 159.547,104.728 159.547,105.744 157.003,105.744 156.83,105.744 156.83,105.925 
		156.83,107.264 156.83,107.311 156.845,107.359 157.523,108.713 157.57,108.8 157.68,108.8 161.729,108.8 164.344,109.446 
		165.652,112.715 164.974,117.417 164.935,117.693 165.203,117.606 167.062,116.992 167.652,119.985 165.817,119.985 
		165.557,119.985 165.675,120.237 166.353,121.592 166.376,121.647 166.432,121.663 167.652,122.277 167.014,124.16 166.408,125.42 
		163.793,125.42 163.706,125.42 163.659,125.483 161.619,128.185 161.587,128.232 161.587,128.295 161.587,131.682 161.587,131.761 
		161.634,131.801 162.265,132.431 162.265,134.975 160.996,135.605 160.87,135.668 160.91,135.802 162.942,142.592 162.974,142.71 
		163.107,142.71 165.037,142.71 166.353,145.325 166.424,145.451 166.558,145.404 168.598,144.727 168.653,144.711 168.684,144.664 
		174.773,135.203 178.798,133.187 178.814,133.171 178.846,133.155 180.106,131.895 181.366,132.51 181.476,132.573 
		181.563,132.478 183.587,130.462 188.274,127.13 190.905,127.791 190.96,127.807 191.015,127.776 199.845,123.711 	"/>
	<polygon style="fill:#1E81E2;" points="243.389,157.692 243.389,157.448 243.389,156.093 243.389,156.022 243.35,155.991 
		241.987,154.62 241.782,154.415 241.711,154.699 241.026,156.723 240.971,156.881 241.136,156.944 243.168,157.621 	"/>
	<polygon style="fill:#1E81E2;" points="248.076,199.125 248.131,198.865 248.903,195.651 248.942,195.462 248.761,195.43 
		243.925,194.572 243.728,194.54 243.728,194.761 243.728,195.43 243.728,195.509 243.783,195.556 247.863,198.944 	"/>
	<polygon style="fill:#1E81E2;" points="237.615,190.003 237.615,192.713 237.615,192.957 237.844,192.863 239.38,192.28 
		239.498,192.232 239.474,192.114 239.325,189.987 239.301,189.838 239.151,189.838 237.789,189.838 237.615,189.838 	"/>
</g>
<g>
	<polygon style="fill:#004DA0;" points="263.042,201.251 263.136,201.283 267.296,202.031 267.461,202.063 267.492,201.913 
		267.745,200.724 267.784,200.527 267.595,200.511 262.924,200.172 262.672,200.157 262.743,200.401 263.01,201.157 	"/>
	<polygon style="fill:#004DA0;" points="433.971,234.539 433.877,234.634 433.199,235.311 433.144,235.359 433.144,235.437 
		433.144,241.463 432.514,242.093 432.412,242.204 432.506,242.33 435.224,245.709 435.232,245.725 435.232,245.725 
		435.917,246.402 435.925,246.418 435.94,246.433 437.981,247.773 438.012,247.82 438.075,247.82 440.785,247.82 441.021,247.82 
		440.942,247.591 440.273,245.559 440.233,245.449 440.107,245.449 438.792,245.449 437.539,244.819 436.901,242.251 
		438.209,240.266 438.264,240.203 438.233,240.124 436.878,236.052 436.854,235.989 436.791,235.957 434.074,234.602 	"/>
	<polygon style="fill:#004DA0;" points="438.579,251.294 438.579,251.711 438.579,254.421 438.579,254.838 438.863,254.539 
		440.233,253.192 440.336,253.066 440.233,252.94 438.863,251.585 	"/>
	<polygon style="fill:#004DA0;" points="440.407,250.986 440.422,250.986 441.352,251.837 441.635,252.097 441.635,251.711 
		441.635,251.034 441.635,250.986 441.62,250.955 440.934,249.592 440.832,249.387 440.659,249.561 439.981,250.238 439.879,250.34 
		439.973,250.466 440.399,250.971 	"/>
	<polygon style="fill:#004DA0;" points="444.353,251.711 444.353,249.679 444.353,249.403 444.109,249.529 442.746,250.207 
		442.589,250.277 442.667,250.451 442.927,250.868 442.943,250.884 442.967,250.9 444.069,251.837 444.353,252.081 	"/>
	<polygon style="fill:#004DA0;" points="441.391,257.957 441.722,258.123 441.628,257.776 440.95,255.051 440.808,254.499 
		440.619,255.051 439.942,257.083 439.903,257.217 440.036,257.28 	"/>
	<polygon style="fill:#004DA0;" points="443.329,265.401 443.463,265.433 446.18,266.11 446.385,266.157 446.385,265.945 
		446.385,264.188 447.504,264.755 447.646,264.818 447.732,264.669 448.41,263.314 448.433,263.251 448.417,263.203 
		447.063,257.776 447.047,257.697 446.976,257.666 445.613,256.973 445.487,256.926 445.401,257.036 443.4,259.698 441.415,260.376 
		441.289,260.407 441.289,260.525 441.289,262.558 441.289,262.723 441.47,262.723 443.329,262.723 443.329,265.267 	"/>
	<polygon style="fill:#004DA0;" points="433.144,253.192 433.144,253.743 433.144,256.39 430.49,259.052 430.403,259.123 
		430.442,259.233 431.128,260.604 431.254,260.848 431.419,260.636 433.451,257.91 433.459,257.91 433.467,257.879 434.137,256.555 
		434.798,255.894 434.893,255.807 434.814,255.681 433.451,253.649 	"/>
	<polygon style="fill:#004DA0;" points="443.518,252.711 443.353,252.971 442.762,254.003 442.691,254.098 442.77,254.184 
		444.046,255.878 444.353,256.295 444.353,255.776 444.353,254.421 444.353,254.373 444.337,254.358 443.652,252.987 	"/>
	<polygon style="fill:#004DA0;" points="408.852,294.648 408.97,294.569 411.01,293.222 411.081,293.159 411.081,293.081 
		411.081,288.323 411.081,288.268 411.049,288.236 403.582,277.374 400.187,273.294 400.163,273.278 400.124,273.247 
		398.816,272.601 396.808,269.253 396.753,269.19 396.69,269.174 391.932,268.497 391.735,268.465 391.735,268.646 391.735,269.34 
		391.735,269.403 391.782,269.466 395.808,273.483 395.808,275.452 395.808,275.554 395.902,275.586 397.202,276.232 
		398.541,279.572 398.549,279.587 398.557,279.587 401.92,284.991 401.92,287.653 401.92,287.709 401.959,287.772 408.757,294.546 	
		"/>
	<polygon style="fill:#004DA0;" points="410.837,283.817 410.75,284.219 410.49,285.401 410.474,285.542 410.585,285.59 
		412.191,286.432 412.412,286.204 411.049,284.156 	"/>
	<polygon style="fill:#004DA0;" points="442.502,282.785 442.171,282.73 438.304,282.077 438.91,280.249 439.524,279.02 
		443.479,279.682 443.542,279.698 443.597,279.65 445.629,278.296 445.708,278.248 445.708,278.154 445.708,276.807 
		445.708,276.523 445.464,276.649 444.148,277.311 438.753,277.311 438.705,277.311 438.674,277.311 437.319,278.004 
		437.272,278.036 437.24,278.083 435.877,280.785 435.862,280.832 435.862,280.864 435.862,282.187 433.837,288.961 
		433.806,289.048 433.877,289.126 435.192,290.434 435.862,295.129 435.901,295.357 436.106,295.263 437.469,294.569 
		437.555,294.546 437.563,294.451 438.233,289.016 438.233,289.016 438.233,289 438.233,288.945 439.958,291.805 440.013,291.899 
		440.107,291.899 440.785,291.899 440.934,291.899 440.95,291.742 441.635,287.677 441.659,287.59 441.588,287.527 439.666,285.621 
		442.258,283.022 	"/>
	<polygon style="fill:#004DA0;" points="450.796,281.572 451.23,283.62 451.332,284.125 451.545,283.652 452.482,281.62 
		452.498,281.588 452.498,281.541 452.498,278.831 452.498,278.8 452.49,278.776 451.119,275.373 451.033,275.145 450.844,275.326 
		450.166,276.003 450.119,276.051 450.127,276.145 	"/>
	<polygon style="fill:#004DA0;" points="453.018,288.142 452.955,288.158 450.914,288.835 450.662,288.929 450.844,289.126 
		451.529,289.804 451.584,289.867 451.655,289.851 453.482,289.772 455.672,290.528 455.767,290.56 455.845,290.481 
		456.523,289.804 456.704,289.623 456.46,289.528 453.073,288.158 	"/>
	<polygon style="fill:#004DA0;" points="434.034,301.375 434.034,301.052 430.631,300.375 430.434,300.327 430.434,300.524 
		430.434,301.895 430.434,302.1 430.631,302.052 	"/>
	<polygon style="fill:#004DA0;" points="440.273,302.052 440.273,301.895 440.273,301.202 440.273,301.036 440.107,301.036 
		436.035,301.036 435.964,301.036 435.917,301.099 435.232,301.769 434.948,302.052 435.358,302.052 440.107,302.052 	"/>
	<polygon style="fill:#004DA0;" points="433.908,304.463 433.924,304.557 434.018,304.589 435.964,305.432 436.2,305.542 
		436.2,305.282 436.2,304.605 436.2,304.479 436.09,304.431 434.05,303.754 433.782,303.667 433.829,303.959 	"/>
	<polygon style="fill:#004DA0;" points="412.845,286.464 412.956,286.464 413.625,286.464 413.901,286.464 413.783,286.22 
		412.428,283.494 412.373,283.4 412.278,283.4 411.593,283.4 411.325,283.4 411.443,283.652 412.79,286.369 	"/>
	<polygon style="fill:#004DA0;" points="421.707,301.359 421.754,301.391 421.809,301.375 425.204,300.698 425.244,300.698 
		425.291,300.65 425.968,299.973 426.023,299.926 426.023,299.847 426.023,299.169 426.023,299.036 425.889,299.004 
		423.251,298.342 422.613,297.066 422.581,297.019 422.534,296.988 419.816,295.633 419.738,295.601 419.659,295.633 
		418.351,296.279 411.632,294.94 411.616,294.94 411.593,294.94 410.908,294.94 410.845,294.94 410.797,294.987 408.757,297.035 
		408.537,297.232 408.828,297.311 411.459,297.956 412.121,299.248 412.168,299.343 412.278,299.343 417.658,299.343 	"/>
	<polygon style="fill:#004DA0;" points="458.996,286.417 459.043,286.464 459.106,286.464 459.626,286.464 459.626,286.866 
		458.358,287.496 458.153,287.606 458.311,287.772 459.595,289.032 458.973,290.284 458.91,290.387 458.996,290.481 
		459.666,291.159 459.792,291.277 459.91,291.159 461.178,289.898 468.464,294.53 469.213,300.8 469.228,300.91 469.315,300.942 
		471.938,302.037 475.325,304.069 475.577,304.219 475.577,303.927 475.577,302.667 477.531,301.359 478.791,300.729 
		481.39,302.683 483.399,306.708 483.446,306.786 483.533,306.802 487.597,307.48 487.944,307.543 487.786,307.235 483.753,299.847 
		485.069,297.216 485.132,297.098 485.014,297.019 481.69,294.341 481.69,292.403 481.69,292.324 481.642,292.261 479.602,290.237 
		479.594,290.221 479.571,290.206 473.553,286.866 473.553,286.803 473.419,286.803 473.23,286.692 473.214,286.803 
		471.379,286.803 470.079,286.157 468.748,284.818 468.685,284.77 468.622,284.77 467.944,284.77 467.866,284.77 467.81,284.833 
		465.18,288.126 461.997,286.85 461.997,283.589 461.997,283.494 461.934,283.447 459.217,281.423 459.075,281.297 458.973,281.446 
		457.626,283.494 457.594,283.526 457.594,283.589 457.594,284.944 457.594,285.007 457.641,285.046 	"/>
	<polygon style="fill:#004DA0;" points="449.103,290.434 449.221,290.308 449.898,289.631 450.017,289.512 449.898,289.386 
		449.221,288.709 449.174,288.662 449.103,288.662 447.748,288.662 447.33,288.662 447.63,288.961 448.969,290.308 	"/>
	<polygon style="fill:#004DA0;" points="448.331,302.73 448.922,302.462 448.276,302.407 446.488,302.234 446.44,302.234 
		446.385,302.249 442.069,304.447 441.982,304.494 441.982,304.605 441.982,305.282 441.982,305.542 442.218,305.432 	"/>
	<polygon style="fill:#004DA0;" points="313.659,329.677 313.635,329.417 313.415,329.527 312.052,330.22 311.95,330.283 
		311.958,330.386 312.131,331.914 312.139,332.048 312.288,332.064 313.635,332.237 313.848,332.268 313.832,332.048 	"/>
	<polygon style="fill:#004DA0;" points="322.056,322.083 321.859,321.973 321.804,322.186 321.386,324.328 321.347,324.494 
		321.536,324.525 322.891,324.683 323.001,324.714 323.064,324.604 323.828,323.155 323.907,323.005 323.742,322.926 	"/>
	<polygon style="fill:#004DA0;" points="298.819,310.268 298.953,310.284 300.316,310.449 300.426,310.465 300.473,310.37 
		301.568,308.756 301.757,308.512 301.434,308.512 298.811,308.417 298.614,308.401 298.638,308.606 298.811,310.126 	"/>
</g>
<g>
	<polygon style="fill:#1E81E2;" points="245.185,200.739 245.264,201.062 245.61,202.575 245.673,202.929 245.91,202.661 
		246.745,201.637 246.902,201.464 246.682,201.37 245.492,200.865 	"/>
	<path style="fill:#1E81E2;" d="M162.603,293.727l-0.008-0.079l-0.063-0.047l-8.153-5.427l-0.032-0.016h-0.031l-7.444-1.339
		l-2.662-1.339l-2.702-2.694l-0.024-0.032l-0.024-0.016l-1.355-0.662l-0.102-0.047l-0.079,0.047l-1.985,1.323h-1.985h-0.047
		l-0.039,0.032l-1.111,0.551v-0.339l1.308-1.308l0.016-0.016l0.016-0.032l0.646-1.292l2.67-1.339l0.213-0.11l-0.173-0.165
		l-2.016-2.017l-2.647-5.293l0.063-0.079l-0.142-0.079l-0.079-0.173l-0.079,0.095l-4.616-2.631l-1.331-1.339l-0.071-0.079
		l-0.087,0.031l-3.293,0.662l-4.561-5.215h0.008l-0.15-0.158l0,0l-0.095-0.095h0l-5.333-5.325l-0.047-0.047h-0.047l-3.395-0.693
		h-0.071l-0.039,0.016l-1.308,0.662l-5.309-1.339l-2.686-3.34l-0.118-0.142l-0.142,0.126l-0.67,0.677l-0.055,0.063v0.063v0.677
		v0.079l0.055,0.047l0.48,0.48l-1.772,0.599l-0.079,0.032l-0.032,0.047l-0.677,1.371l-0.016,0.032v0.047v1.922l-1.032,0.504v-3.033
		v-0.095v-0.299v-0.315l1.339-2.001l0.11-0.158l-0.165-0.095l-1.371-0.677l-0.071-0.047l-0.079,0.047l-5.427,2.725l-0.047,0.016
		l-0.032,0.032l-3.3,5.293l-3.253-1.953l-0.055-0.032l-0.047,0.016l-5.333,0.662l-1.946-3.245l1.339-10.027l0.126-0.063l-0.11-0.11
		l0.039-0.26l-0.181,0.11l-2.615-2.615l-0.063-0.032l-0.047-0.016l-4.726-0.677l0,0l-0.977-0.244l0.433-0.859l0.016-0.047v-0.032
		v-2.678l4.064-8.105l0.134-0.26l-0.307,0.032l-6.774,0.677h-0.134l-0.032,0.126l-0.685,2.71c0,0-0.496,1.504-0.638,1.922
		l-5.9,0.646l-3.978-5.278l1.347-8.058l1.339-4.017l6.727-8.735h4.632l4.71,2.694l0.197,0.126l0.055-0.228l0.638-3.214l2.536,0.63
		l5.325,1.323l1.355,10.059l0.016,0.158h0.142h1.371h0.071l0.047-0.063l1.363-1.355l0.032-0.032l0.016-0.047l0.677-3.403v-0.016
		v-0.016v-6.073l2.662-5.971h1.245h0.055l0.055-0.016l8.137-6.105l0.071-0.063v-0.079v-4.71l1.701-3.403v0.016l0.685,2.71
		l0.087,0.354l0.213-0.291l3.403-4.758l0.008-0.016l0.008-0.016l0.638-1.953l6.018-0.646l0.087-0.016l0.047-0.095l0.677-1.355
		l0.024-0.11l-0.087-0.095l-0.599-0.583l1.276-3.182h1.914h0.047l0.047-0.032l5.388-3.371h1.15v0.48l-0.662,1.308l-0.024,0.047
		v0.047v2.032v0.276l0.252-0.126l6.782-3.403l0.205-0.095l-0.165-0.181l-3.348-3.324v-2.647v-0.047l-0.016-0.032l-0.551-1.111h1.764
		h0.102l0.047-0.11l0.67-1.355l0.11-0.181l-0.205-0.047l-2.718-0.693h-0.079l-0.063,0.031l-8.814,6.105l-1.174,0.583l-0.575-1.741
		l10.713-7.357h10.13h0.047l0.047-0.016l7.467-4.08l0.055-0.032l0.032-0.063l0.662-2.032l0.063-0.181l-0.181-0.031l-3.403-0.677
		l-0.063-0.031l-0.063,0.047l-1.922,1.276l-0.48-0.48l2.615-3.261l0.047-0.047v-0.063v-2.71v-0.11l-0.095-0.047l-1.26-0.63v-2.615
		l-0.677-6.782l-0.039-0.323l-0.244,0.197l-3.962,3.308l-3.182-2.536l1.292-2.584l0.071-0.142l-0.11-0.079l-4.072-3.403h-0.016
		l-0.016-0.016l-4.08-2.032l-0.165-0.079l-0.071,0.158l-3.379,8.074l-2.655,1.339l-0.095,0.047v0.095l-0.67,6.002l-6.018,2.678
		l-0.11,0.047v0.11v4.033l-1.331,3.324l-0.63,0.646l-1.229,0.614l-0.536-0.551v-1.969v-0.063l-0.055-0.047l-1.276-1.276l1.993-4.647
		l0.055-0.126l-0.102-0.079l-3.387-2.694l-3.387-4.064l-0.055-0.063h-0.079h-2.607l-0.583-1.166l1.3-1.953l0.079-0.126l-0.102-0.095
		l-0.622-0.63v-1.229l3.332-3.986l7.436-4.064l0.339-0.181l-0.362-0.126l-3.994-1.323l-0.536-1.623l4.443,1.276h0.024h0.032h4.75
		h0.11l0.047-0.095l0.677-1.355l0.087-0.158l-0.165-0.079l-2.45-1.229l1.717-1.126l2.615,1.308l0.071,0.032l0.079-0.016l3.356-1.355
		h0.646h0.024h0.024l5.427-1.355l0.087-0.032l0.032-0.079l2.04-4.758l0.087-0.181l-0.205-0.047l-3.395-0.662l-0.095-0.032
		l-0.063,0.063l-3.883,3.875l-1.906-5.065l1.268-1.276l0.063-0.063v-0.063v-4.057v-0.291l-0.26,0.158l-6.097,3.387l-0.134,0.079
		l0.039,0.126l0.677,2.016v0.583l-4.411,5.033v-2.269v-0.063l-0.055-0.063l-0.677-0.677l-0.032-0.016l-0.032-0.016l-2.048-0.693
		l-0.095-0.016l-0.071,0.063l-1.284,1.276l-5.333-1.985l-0.039-0.016h-0.032h-3.387H98.54l-0.047,0.047l-2.576,2.568l-1.245-1.859
		l-0.039-0.063l-0.071-0.016l-3.812-0.63l1.205-1.812l0.11-0.158l-0.165-0.095l-6.105-3.387l-0.079-0.032l-0.063,0.016l-1.914,0.646
		l-1.284-1.922l-0.126-0.181l-0.142,0.158l-0.607,0.599l-2.623-0.662h-0.032h-0.032l-8.751,1.355l-2.481-1.859l0.016-0.032
		l-0.197-0.11l-0.102-0.079l-0.016,0.016l-8.034-4.695l-0.055-0.024h-0.047l-8.822,0.693h-0.032l-0.024,0.016l-6.703,2.662
		l-3.324-2.647l-0.15-0.126l-0.11,0.181l-0.67,1.355l-0.024,0.032v0.047v4.663l-1.812,1.197l-1.252-1.89l-0.102-0.142l-0.15,0.095
		l-6.097,4.08l-0.315,0.197l0.354,0.095l4.474,1.292l-2.45,2.434l-3.308-0.662l-0.047-0.024l-0.055,0.032l-6.79,3.403l-0.055,0.032
		l-0.032,0.063l-2.04,6.105l-0.047,0.158l0.15,0.063l3.072,1.213l-6.459,3.891l-5.411,1.339l-0.047,0.016l-0.032,0.032l-0.685,0.67
		l-0.291,0.291h0.417h6.79h0.032l0.039-0.016l12.217-6.105l0.102-0.047v-0.11v-1.229l6.656-2.662h0.567l0.457,0.449l-4.529,1.938
		l-0.055,0.032l-0.024,0.047l-0.685,1.371l-0.071,0.158l0.158,0.063l1.363,0.693l0.071,0.032l0.079-0.032l5.348-2.678l4.632,2.631
		l2.016,4.71l0.063,0.158l0.165-0.079l2.458-1.229v1.063l-1.355,5.404c0,0-0.559,2.828-0.654,3.324h-0.016l-0.016,0.079l0,0
		l-0.079,0.339h0.024l-0.622,3.742l-0.685,4.758l-0.008,0.047l0.032,0.063l2.67,4.663l-2.528,4.419l-1.205-1.804l-0.055-0.079
		h-0.087H42.26h-0.102l-0.039,0.079l-10.193,18.306l-0.024,0.016v0.047v4.742v0.032l0.008,0.031l0.638,1.875l-1.875,0.614
		l-0.118,0.047v0.126v6.105v0.063l0.047,0.047l3.356,4.017v1.804v0.165v0.181v4.553v0.016v0.016l0.654,5.309l-1.237,0.63
		l-0.173,0.079l0.11,0.165l1.347,2.032c0.016,0,1.757,2.324,2.016,2.662v6.065v0.032l0.024,0.032l1.355,2.725l0.11,0.213
		l0.165-0.165l1.363-1.371l0.071-0.063l-0.032-0.11l-1.355-4.049v-6.073v-0.016v-0.032l-2.016-6.727l1.213-3.694l1.158,1.725
		l1.339,8.105h0.008v0.016l2.04,6.766v0.016l0.008,0.016l2.702,6.065l-0.677,6.049l-0.008,0.079l0.047,0.063l6.79,8.137l0.016,0.016
		l0.016,0.024l5.435,2.71l0.063,0.031l0.071-0.031l2.032-0.662c0,0,2.072-0.52,2.592-0.646l2.592,3.875l-0.008,0.032l0.071,0.063
		l0.158,0.228l0.032-0.047l1.189,1.182l0.016,0.016h0.008l1.914,1.276l-0.024,0.032l0.165,0.079l0.142,0.095l0.016-0.032
		l3.253,1.292l0.071,0.032l0.071-0.032l1.119-0.567v0.37l-0.662,1.323l-0.039,0.063l0.024,0.063l2.04,5.427l0.685,2.032l0.016,0.047
		l-0.008,0.024l0.677,0.677l0.095,0.079l0.11-0.047l1.245-0.63l2.536,2.536l-0.102,0.142h0.244l0.095,0.11l0.079-0.11h0.496
		l1.985,2.647l0.087,0.11l0.134-0.047l1.347-0.693l0.102-0.047v-0.11v-1.229l1.788-0.599l1.953,3.23v10.09l-1.339,2.662
		c-0.016,0.032-1.355,2.032-1.355,2.032l-2.725,4.758l-0.024,0.047v0.047v3.387v0.276l0.252-0.126l1.103-0.551v1.678l-1.197,1.213
		l-0.205-0.126l0.047,0.276l-0.095,0.095l0.118,0.079l0.67,5.341l0.008,0.063l0.039,0.047l4.049,4.033l1.339,4.033l5.435,12.91
		l0.024,0.047l0.039,0.016l6.112,4.08c0,0,3.064,2.45,3.348,2.678l0.654,1.292l2.032,17.613l3.395,29.83l0.008,0.016l0.008,0.032
		l1.355,3.356v2.678v0.126l0.11,0.047l2.04,0.677l1.26,0.63l1.977,9.216h-1.15h-0.102l-0.047,0.095l-0.677,1.355l-0.063,0.126
		l0.11,0.095l2.647,1.985v1.938v0.047l0.032,0.047l1.347,2.017l0.662,2.678l0.008,0.047l0.047,0.032l1.985,1.985v0.614v0.063
		l0.047,0.063l1.363,1.355l0.047,0.047h0.071h1.26l0.599,1.229v0.63v0.11l0.095,0.047l1.371,0.677l0.039,0.016h0.032h1.363h0.173
		v-0.221v-1.969l1.3-1.292l0.055-0.047v-0.079v-0.504v-0.165v-0.165v-0.504v-0.047l-0.016-0.032l-1.331-2.647l2.016-6.049
		l0.008-0.016v-0.032v-2.032v-0.11l-0.095-0.047l-3.836-1.922l2.505-1.859l0.071-0.047v-0.095v-7.459v-0.079l-0.055-0.032
		l-0.677-0.693l-0.055-0.047h-0.071h-1.221l-0.599-2.371h1.757l0.63,0.63l0.118,0.126l0.126-0.126l1.363-1.355l0.047-0.047v-0.079
		v-1.355v-0.079l-0.047-0.047l-0.63-0.63v-1.111h2.544h0.047l0.039-0.032l3.403-2.032l0.047-0.047l0.024-0.047l1.363-4.08
		l0.039-0.126l-0.126-0.079l-3.34-2.001l-1.331-3.986l-0.362-1.914l0.67,2.032v0.016h0.016l0.685,1.355l0.031,0.063l0.071,0.032
		l2.032,0.677l0.032,0.016h0.024h1.355h0.032l0.032-0.016l2.04-0.677l0.055-0.032l0.024-0.047l2.032-3.371l0.567-0.567l0.047,0.032
		l0.079-0.158l0.126-0.126l-0.047-0.032l1.953-3.907l0.662-0.662l0.039-0.032l0.008-0.047l0.67-2.662l0.646-0.646l0.055-0.063
		l-0.008-0.079l-0.677-9.397l10.784-6.727l0.055-0.032l0.016-0.079l2.718-12.201l0.008-0.032v-0.016l-0.677-8.751l1.3-1.953
		l1.315-0.662l0.063-0.016l0.016-0.063l4.088-8.814l0.016-0.047v-0.047L162.603,293.727z M103.542,318.775v-1.126h0.449l1.827,1.213
		l-1.095,1.095L103.542,318.775z"/>
	<polygon style="fill:#1E81E2;" points="137.374,281.234 137.358,281.265 136.428,282.376 136.137,282.699 136.57,282.652 
		137.326,282.557 137.342,282.557 137.366,282.557 139.398,281.88 139.469,281.864 139.5,281.785 140.186,280.438 140.375,280.036 
		139.957,280.202 137.413,281.218 	"/>
</g>
<g>
	<path style="fill:#004DA0;" d="M299.536,119.954l-0.095,0.079l-0.67,0.677l-0.126,0.126l0.126,0.126l2.032,2.032l0.291,0.291
		v-0.417v-2.032v-0.11l-0.102-0.047l-1.347-0.677L299.536,119.954z M299.607,120.355l1.15,0.583v1.505l-1.631-1.615L299.607,120.355
		z"/>
	<path style="fill:#004DA0;" d="M440.273,158.976v-0.158v-0.693v-0.079l-0.055-0.047l-3.403-2.725c0,0-2.505-1.875-2.694-2.016
		l-4.75-6.089l-0.047-0.063h-0.087h-0.677h-0.173v0.165v2.71v0.063l0.047,0.047l2.718,3.403l0,0v0.016l3.379,3.356l2.71,6.073
		l0.016,0.047l0.032,0.032l3.395,2.71l0.205,0.158l0.071-0.244l0.677-2.71l0.032-0.095l-0.071-0.063l-3.159-3.797h1.678H440.273z"/>
	<path style="fill:#004DA0;" d="M429.277,105.405l0.055-0.016l0.032-0.032l0.685-0.677l0.284-0.291h-0.41h-2.71h-0.071l-0.071,0.047
		l-1.347,1.371l-0.402,0.386l0.544-0.11L429.277,105.405z M427.276,104.728h2.237l-0.354,0.354l-2.788,0.551L427.276,104.728z"/>
	<polygon style="fill:#004DA0;" points="293.352,120.97 293.408,121.017 293.494,121.001 297.567,120.324 298.157,120.237 
		297.598,120.001 294.29,118.678 293.628,115.369 293.604,115.298 293.541,115.267 292.179,114.59 292.068,114.527 291.982,114.621 
		289.272,117.323 289.138,117.449 289.28,117.575 	"/>
	<polygon style="fill:#004DA0;" points="294.754,113.542 294.865,113.573 294.936,113.495 298.984,109.462 303.695,108.115 
		304.049,108.02 303.742,107.808 301.702,106.453 301.623,106.405 301.544,106.437 298.205,107.776 296.227,107.114 
		296.109,107.067 296.031,107.185 292.628,112.605 292.525,112.786 292.738,112.864 	"/>
	<polygon style="fill:#004DA0;" points="325.222,100.576 325.254,100.647 325.341,100.647 328.728,101.341 328.862,101.372 
		328.917,101.246 330.272,98.544 330.327,98.418 330.24,98.339 328.893,96.969 328.799,96.898 328.696,96.961 327.412,97.591 
		325.459,96.284 325.341,96.205 325.246,96.315 323.891,97.662 323.805,97.741 323.86,97.851 	"/>
	<polygon style="fill:#004DA0;" points="333.391,101.971 333.517,102.081 333.635,101.971 336.353,99.253 336.479,99.143 
		336.353,99.017 335.675,98.339 335.62,98.284 335.557,98.284 332.839,98.284 332.713,98.284 332.674,98.402 331.997,100.435 
		331.965,100.545 332.028,100.616 	"/>
	<polygon style="fill:#004DA0;" points="388.49,103.373 388.734,103.404 388.679,103.16 388.001,100.45 387.954,100.293 
		387.805,100.324 383.724,101.002 383.59,101.033 383.59,101.175 383.59,102.53 383.59,102.68 383.724,102.695 	"/>
	<polygon style="fill:#004DA0;" points="378.203,104.68 378.281,104.759 378.384,104.728 380.416,104.034 380.629,103.971 
		380.503,103.79 379.156,101.758 379.069,101.616 378.927,101.695 377.572,102.372 377.478,102.42 377.478,102.53 377.478,103.877 
		377.478,103.956 377.533,104.003 	"/>
</g>
<g>
	<circle style="fill:#1E81E2;" cx="84.519" cy="234.973" r="1.867"/>
	<polygon style="fill:#1E81E2;" points="96.004,234.91 96.043,234.831 96.729,233.484 96.8,233.342 96.658,233.248 84.433,226.465 
		84.393,226.434 84.33,226.45 80.25,227.127 80.171,227.143 80.124,227.222 78.777,229.923 78.659,230.191 78.927,230.191 
		80.959,230.191 81.014,230.191 81.061,230.16 83.046,228.821 83.621,228.821 90.293,233.5 90.293,235.437 90.293,235.634 
		90.49,235.603 95.917,234.925 	"/>
	<polygon style="fill:#1E81E2;" points="80.447,230.821 80.297,231.129 79.62,232.468 79.588,232.539 79.604,232.602 
		79.777,233.184 79.833,233.389 80.014,233.295 81.211,232.696 81.361,232.633 81.29,232.468 80.605,231.129 	"/>
	<polygon style="fill:#1E81E2;" points="119.524,255.941 119.706,255.909 119.643,255.744 119.312,254.539 119.288,254.421 
		119.154,254.421 118.469,254.421 118.311,254.421 118.311,254.586 118.311,255.941 118.311,256.146 118.5,256.114 	"/>
	<polygon style="fill:#1E81E2;" points="118.8,251.616 118.642,251.616 118.642,251.79 118.642,253.16 118.642,253.357 
		118.831,253.31 119.847,253.16 120.044,253.113 119.981,252.94 119.643,251.758 119.619,251.616 119.493,251.616 	"/>
	<polygon style="fill:#1E81E2;" points="119.335,251.034 119.532,250.986 119.485,250.821 119.138,249.616 119.107,249.513 
		118.981,249.513 118.304,249.513 118.13,249.513 118.13,249.679 118.13,251.034 118.13,251.231 118.327,251.207 	"/>
	<polygon style="fill:#1E81E2;" points="119.06,245.756 119.272,245.654 119.091,245.48 117.744,244.141 117.453,243.85 
		117.453,244.252 117.453,246.284 117.453,246.56 117.697,246.433 	"/>
	<polygon style="fill:#1E81E2;" points="120.076,243.692 119.737,242.511 119.698,242.385 119.58,242.385 118.894,242.385 
		118.721,242.385 118.721,242.558 118.721,243.913 118.721,244.11 118.926,244.078 119.95,243.913 120.123,243.881 	"/>
	<polygon style="fill:#1E81E2;" points="119.737,248.096 119.398,246.914 119.351,246.788 119.233,246.788 118.556,246.788 
		118.382,246.788 118.382,246.969 118.382,248.308 118.382,248.513 118.587,248.497 119.603,248.308 119.784,248.277 	"/>
	<polygon style="fill:#1E81E2;" points="117.618,241.715 117.689,241.715 117.744,241.652 118.414,240.975 118.705,240.699 
		118.304,240.699 116.941,240.699 116.768,240.699 116.768,240.865 116.768,241.542 116.768,241.715 116.941,241.715 	"/>
	<polygon style="fill:#1E81E2;" points="116.295,239.344 112.908,238.651 112.356,238.541 112.742,238.943 114.105,240.297 
		114.184,240.376 114.286,240.345 116.326,239.667 116.933,239.462 	"/>
	<polygon style="fill:#1E81E2;" points="107.937,237.123 107.937,237.462 107.937,239.51 107.937,239.683 108.127,239.683 
		110.836,239.683 111.34,239.683 110.939,239.376 108.221,237.328 	"/>
	<polygon style="fill:#1E81E2;" points="99.289,232.216 99.572,232.216 99.446,231.971 98.761,230.617 98.619,230.309 
		98.462,230.617 97.784,231.971 97.65,232.216 97.942,232.216 	"/>
	<rect y="70.093" style="fill:#1E81E2;" width="504.123" height="6.735"/>
	<rect y="45.344" style="fill:#1E81E2;" width="504.123" height="5.049"/>
	<rect y="20.295" style="fill:#1E81E2;" width="504.123" height="2.954"/>
	<rect y="427.264" style="fill:#1E81E2;" width="504.123" height="6.735"/>
	<rect y="453.699" style="fill:#1E81E2;" width="504.123" height="5.049"/>
	<rect y="480.874" style="fill:#1E81E2;" width="504.123" height="2.954"/>
	<path style="fill:#1E81E2;" d="M408.229,108.453l-0.071,0.016l-6.073,1.355l-6.743-2.032h-0.024h-0.032h-8.137h-0.047h-0.024
		l-6.798,3.403l-0.095,0.047v0.11v1.15l-15.415-2.678c-0.016,0-8.16-0.677-8.16-0.677l-0.181-0.016v0.181v1.757l-3.82-1.906
		l-0.102-0.063l-0.087,0.079l-4.293,3.679l0.488-1.465l0.055-0.158l-0.165-0.063l-1.646-0.536l3.71-1.859l0.095-0.032v-0.11v-3.403
		v-0.11l-0.095-0.047l-4.096-2.032l-0.047-0.024l-0.079,0.032l-3.293,1.308l-1.953-1.953l-0.055-0.047h-0.071h-2.032h-0.079
		l-0.055,0.079l-1.355,2.032l-0.039,0.047v0.047v0.677v0.047l0.024,0.032l0.559,1.111h-8.554h-0.055l-0.047,0.032l-8.137,5.427
		l-0.134,0.079l0.063,0.142l0.685,1.339l0.677,2.032l0.024,0.095l0.102,0.032l3.324,0.662l1.764,2.922l-1.607-0.536l-0.134-0.047
		l-0.079,0.142l-0.52,1.048l-1.213-2.402l-0.024-0.079l-0.071-0.016l-4.758-1.355l-0.102-0.032l-0.071,0.079l-0.599,0.599
		l-3.285-1.323l-0.236-0.095v0.26v3.387v0.079l0.047,0.047l3.403,3.387l0.047,0.047h0.079h2.67l10.051,5.372v0.953l-3.135-1.89
		l-0.26-0.165v0.291v2.245l-3.104-3.726l-0.016-0.016l-0.047-0.016l-3.395-1.371l-0.11-0.032l-0.079,0.079l-1.363,1.355
		l-0.047,0.047v0.079v1.89l-2.914,0.567l1.205-2.387l0.016-0.047v-0.032v-1.355v-0.095l-0.102-0.047l-1.315-0.662l-2.009-3.356
		l-0.016-0.016l-0.016-0.016l-0.654-0.646l-2.032-4.064l-0.039-0.079h-0.118h-3.387h-0.126l-0.039,0.11l-1.355,3.387l-0.055,0.095
		l0.087,0.079l3.907,4.553l-1.717,0.567l-2.647-1.985l-0.016-0.032h-0.055h-3.403h-0.165v0.165v1.969l-0.583,0.583h-1.213
		l-0.63-0.63l-0.079-0.079l-0.095,0.032l-5.341,2.001l-1.276-1.276l-0.102-0.11l-0.118,0.095l-6.68,4.663l-0.52-0.52v-1.292v-0.095
		l-0.071-0.047l-2.718-2.032l-0.26-0.213v0.354v5.246h-1.859h-0.079l-0.047,0.047l-2.04,2.048l-0.047,0.047v0.063v1.15l-3.198-0.63
		l-0.087-0.032l-0.079,0.079l-0.67,0.677l-0.15,0.142l0.173,0.126l1.851,1.229l-1.111,1.126l-3.222-1.946l-2.513-5.033l6.42,1.922
		l0.055,0.016l0.071-0.031l1.355-0.677l0.039-0.016l0.032-0.047l1.355-2.032l0.087-0.142l-0.134-0.095l-5.419-4.064l-0.039-0.032
		h-0.047l-4.072-0.693h-0.055l-0.055,0.032l-1.284,0.63l-3.293-1.308l-1.339-1.339l-0.032-0.032l-0.063-0.016l-3.387-0.677h-0.016
		h-0.016h-2.725h-0.055l-0.047,0.032l-2.686,2.016l-3.356,0.677h-0.047l-0.039,0.047l-0.677,0.677l-2.024,1.323l-0.016,0.016v0.016
		l-0.677,0.677l-2.016,1.339l-0.039,0.016l-0.024,0.047l-0.677,1.339l-4.742,6.782l-0.039,0.032v0.063v1.859h-1.859h-0.063
		l-0.047,0.047l-4.758,4.064l-0.071,0.063l0.016,0.11l1.347,6.766v1.339v0.126l0.134,0.032l2.718,0.677l0.095,0.032l0.071-0.079
		l3.23-3.214l3.285,7.247l0.063,0.126l0.142-0.047l2.718-0.662l0.079-0.031l0.039-0.079l1.339-3.356l1.339-1.339h0.008l0.008-0.016
		l2.718-3.387l0.118-0.142l-0.15-0.11l-2.623-1.953l1.308-3.907l3.356-2.678l0.039-0.032l0.016-0.047l1.993-5.325h1.142l0.591,1.182
		l-1.323,2.647v0.016H257.3l-0.662,2.001l-1.315,1.323l-0.079,0.063l0.024,0.095l0.677,4.742l0.016,0.095l0.071,0.047l2.725,1.355
		l0.071,0.032l0.071-0.032l5.396-2.016h1.229l0.559,1.126l-2.576,1.938l-3.348,0.662l-0.142,0.032v0.142v1.355v0.126l0.118,0.047
		l1.875,0.614l-0.583,1.772h-1.914h-0.165l-0.008,0.158l-0.079,1.52l-0.252,1.308l-1.008,1.922l-0.047,0.11l-2.072,0.614
		l-0.291-0.788l-0.039-0.126l-0.15,0.016l-4.08,0.693h-0.008h-0.016l-4.088,1.355l-0.102,0.047v0.126v0.465l-3.206-0.63
		l-0.031-0.016l-0.039,0.016l-1.969,0.646l-1.898-1.245v-1.922l0.677-2.016l0.016-0.032v-0.016v-2.725v-0.402l-0.291,0.291
		l-2.032,2.032l-0.024,0.016l-0.008,0.032l-1.371,2.71l-0.032,0.079l0.032,0.079l0.662,1.323v0.465v0.165v0.165v0.52v0.063
		l0.063,0.047l0.551,0.551l-0.528,0.536l-1.977,0.654l-0.118,0.047l-1.914,0.63l-0.047,0.016l-0.031,0.032l-1.977,1.985h-0.614
		h-0.071l-0.047,0.047l-0.559,0.567l-0.032-0.032l-0.102,0.158l-0.11,0.11l0.024,0.016l-1.26,1.89l-1.315,0.662l-0.039,0.016
		l-0.024,0.031l-1.347,2.016l-1.922,1.276l-1.26-0.63l-0.047-0.032h-0.031h-0.685h-0.118l-0.039,0.126l-0.646,1.922h-1.158
		l-0.622-0.63l-0.063-0.047h-0.063h-0.677h-0.134l-0.032,0.11l-0.685,2.048l-0.016,0.016v0.031v1.355v0.165h0.173h1.961l2.599,3.261
		l-0.646,1.938l-0.016,0.032v0.032v3.781c-0.811-0.165-2.883-0.599-2.883-0.599l-3.852-0.662c0.008,0-1.812-0.417-1.812-0.417
		l-0.134-0.032l-0.063,0.126l-0.63,1.15l-1.252,0.323l-0.134,0.016v0.142l-0.032,2.678v0.181v0.165v2.458l-1.268,4.647l-0.016,0.016
		v0.032v0.662v0.063l0.055,0.047l0.607,0.646l0.622,3.277l0.039,0.165l0.165-0.047l2.458-0.63l1.205,1.89l0.024,0.047l0.047,0.016
		l1.284,0.662l0.142,0.079l0.087-0.142l1.237-1.922l2.875-0.504h0.039l0.047-0.032l2.111-1.89l1.568-1.678l0.063-0.063l-0.024-0.079
		l-0.536-3.064l0.835-1.788l1.946-0.874h0.599h0.047l0.039-0.031l1.284-0.662l0.055-0.047l0.031-0.079l0.591-2.45h0.173h0.095
		l0.063-0.11l0.622-1.245l3.946,0.662l0.071,0.016l0.039-0.047l2.009-1.323h1.308h0.039l0.039-0.016l1.284-0.646l1.237,0.63
		l3.379,4.71l0.008,0.016l0.024,0.031l4.064,2.694l0.63,0.63l0.677,4.017l0.016,0.158h0.142h0.685h0.087l0.071-0.095l1.347-2.032
		l0.047-0.063l-0.032-0.079l-0.63-1.906l1.197-0.583h1.308h0.173v-0.165v-0.677v-0.095l-0.071-0.047l-2.718-2.032l-0.047-0.032
		h-0.055h-0.614l-0.622-0.63l-0.024-0.016l-0.016-0.016l-3.34-2.001l-1.323-3.954l0.591-1.757l0.15,0.11l0.071,0.047l0.087-0.016
		l0.032-0.016l0.811,1.048l0.11,0.165l0.15-0.142l0.488-0.504l0.67,1.386l0.016,0.031l0.024,0.016l1.449,1.449l1.197,1.032h0.008
		l0.008,0.016l2.599,1.583l0,0l0.032,0.032l0.551,0.339l-0.047-0.095l0.181,0.095h0.016l1.331,0.709v2.615v0.016l0.008,0.016
		l0.685,2.725l0.024,0.126h0.142h0.567l1.308,2.615l0.063,0.11h0.102h1.969l0.496,0.504l-0.496,0.488h-0.614h-0.236l0.079,0.228
		l0.677,2.048l0.032,0.11h0.142h1.339h0.063l0.047-0.032l2.04-1.355l0.087-0.063v-0.079v-0.693v-0.047l-0.047-0.047l-2.001-2.662
		v-1.922l1.938-1.922h3.316h0.173v-0.165v-0.11h0.008l0.992-0.677l1.867-0.756l0.173-0.079l-0.102-0.181l-1.583-2.324v-1.812h0.496
		h0.134l0.032-0.11l0.654-1.953l0.52-0.11l0.071,0.181l0.142-0.229l0.11-0.016l-0.032-0.11l2.607-4.246l2.946,0.63l-0.213,1.016
		l-0.032,0.095l0.071,0.063l1.615,1.788l0.095,0.11l0.126-0.079l2.718-1.694l0.158-0.11l-0.11-0.142l-1.709-2.418l4.829-0.772
		l-0.969,4.096l-0.016,0.11l0.095,0.063l4.324,2.891l2.804,2.048l-0.071,1.969l-7.263,0.662l-1.993-1.323l-0.055-0.047l-0.079,0.032
		l-8.129,2.032l-1.835-0.095h-0.071l-0.055,0.047l-1.52,1.449l-2.725,2.71l-0.102,0.095l0.079,0.126l2.024,3.371l0.67,2.678
		l0.039,0.142h0.126h1.292l1.308,1.308l0.079,0.063l0.079-0.016l2.725-0.677l0.047-0.016l0.039-0.031l0.599-0.599l3.285,1.308
		l0.039,0.016h0.047l3.962-0.662l0.599,1.197v2.584v0.11v0.26v1.048l-0.614,1.213h-0.016l-0.032,0.11l-0.118,0.244h0.016
		l-1.898,5.081h-0.559h-0.039l-0.039,0.016l-1.205,0.599l-0.599-1.197l-0.039-0.079l-0.079-0.016l-3.419-0.677l-0.087-0.032
		l-0.071,0.063l-1.961,1.969l-5.892-1.969l-0.008-0.047h-0.142l-0.205-0.063v0.063h-3.111l-0.63-1.26l-0.047-0.095h-0.11h-3.403
		h-0.039l-0.031,0.016l-1.355,0.677l-0.071,0.031l-0.032,0.063l-0.67,2.048l-0.024,0.063l0.031,0.063l0.607,1.213l-1.134,0.551
		l-6.711-4.017l-0.016-0.016h-0.032l-5.404-1.371l-3.293-1.308v-1.142l1.26-0.614l0.102-0.063v-0.095v-4.758v-0.095l-0.087-0.047
		l-2.032-1.355l-0.063-0.047l-0.095,0.016l-2.016,0.677l-10.153,0.677h-0.032h-0.031l-6.711,2.718h-6.081h-0.071l-0.047,0.063
		l-6.12,6.089l-0.024,0.032l-0.008,0.047l-1.355,5.372l-4.687,4.033l-1.3,0.646l-0.071-0.016l-0.031,0.063l-0.488,0.244l0.354,0.016
		l-4.647,9.295v0.016l-2.001,5.309h-0.047v0.142l-0.079,0.197h0.079v1.182v0.047l0.016,0.032l0.662,1.323l0.677,6.034l-1.339,3.356
		l-1.355,3.403l-0.047,0.095l0.079,0.079l1.308,1.323v1.953v0.197v0.985h-0.11l0.11,0.213v0.126h0.071l0.63,1.26l0.008,0.016v0
		l1.347,2.017h0.008l2.647,4.632l-0.031,0.032l0.11,0.11l0.095,0.165l0.047-0.032l1.89,1.89l1.363,2.032h0.008l0.016,0.016
		l0.614,0.614l-0.016,0.016l0.087,0.063l0.213,0.213l0.008-0.063l4.529,3.245l1.347,1.339l0.087,0.079l0.118-0.047l1.331-0.662
		l3.356-0.677h4.6l0.008,0.016l0.142-0.016h0.181v-0.016l5.081-0.646v0.142l0.228-0.158l0.11-0.016v-0.063l1.914-1.276h1.812v0.047
		l0.189-0.047h0.165l-0.008-0.047l2.434-0.599l1.977,4.6l0.063,0.126l0.126-0.016l3.986-0.662l2.631,3.293l0.646,1.292l-0.654,2.631
		l-0.008,0.016l-1.355,4.758l-0.032,0.063l0.055,0.063l0.165,0.26l49.766-49.766l-0.748-1.489l-0.607-1.812h0.055l-0.134-0.228
		l-0.039-0.095h-0.016l-7.404-13.462l-0.528-2.095l2.284,2.276l0.221,0.213l0.063-0.307l0.654-3.245h1.048v5.246v0.11l0.095,0.047
		l1.308,0.662l3.371,6.727l0.024,0.047l0.055,0.031l1.292,0.646l1.032,4.71l15.856-15.833l-0.291-0.583l-0.614-2.489h2.41
		l0.622,0.937l103.29-103.345l-3.277-2.339L408.229,108.453z M308.374,196.62h-2.591l-1.961-3.261l0.67-4.766l0.008-0.063
		l-0.039-0.063l-1.686-2.434l-0.008-0.016l-3.718-6.246l-0.654-2.584l1.52-1.197l4.309-2.15l3.875,2.095l-0.819,2.072l-1.804-0.536
		l-0.11-0.031l-0.071,0.079l-1.859,2.127l-0.095,0.095l0.079,0.11l3.742,4.907l0.677,1.016l0.071,0.095l0.11-0.016l1.339-0.244
		l1.583,1.969l-1.591,0.827l-0.118,0.079l0.024,0.126l1.827,7.373L308.374,196.62z M319.26,179.298l-0.055-0.016l-0.024,0.158
		l-0.102,0.165l0.079,0.016l-0.299,1.953l-2.82-0.52l0.165-3.111l0.63-0.803l1.284-1.126l1.615,2.458L319.26,179.298z"/>
</g>
<g>
</g>
<g>
</g>
<g>
</g>
<g>
</g>
<g>
</g>
<g>
</g>
<g>
</g>
<g>
</g>
<g>
</g>
<g>
</g>
<g>
</g>
<g>
</g>
<g>
</g>
<g>
</g>
<g>
</g>
</svg>
