<?xml version="1.0" encoding="iso-8859-1"?>
<!-- Generator: Adobe Illustrator 16.0.0, SVG Export Plug-In . SVG Version: 6.00 Build 0)  -->
<!DOCTYPE svg PUBLIC "-//W3C//DTD SVG 1.1//EN" "http://www.w3.org/Graphics/SVG/1.1/DTD/svg11.dtd">
<svg version="1.1" id="Capa_1" xmlns="http://www.w3.org/2000/svg" xmlns:xlink="http://www.w3.org/1999/xlink" x="0px" y="0px"
	 width="31.645px" height="31.645px" viewBox="0 0 31.645 31.645" style="enable-background:new 0 0 31.645 31.645;"
	 xml:space="preserve">
<g>
	<g>
		<path d="M10.768,25.369c-0.034-0.022-0.602-0.533-0.743-0.715c-0.138-0.182-0.404-0.23-0.543-0.303
			c-0.14-0.073-1.064-0.377-1.286-0.219c-0.219,0.157-0.521,0.254-0.638,0c-0.115-0.256-0.173-0.292-0.335-0.328
			c-0.162-0.036-0.081-0.23-0.092-0.4c-0.013-0.171-0.105-0.352-0.221-0.23c-0.116,0.122-0.51,0.437-0.567,0.277
			c-0.058-0.156-0.337-0.812,0.081-0.934c0.416-0.121,0.764-0.049,0.869,0.06c0.104,0.109,0.184,0.413,0.313,0.376
			c0.128-0.037,0.058-0.268,0.104-0.461c0.046-0.192,0.349-0.448,0.486-0.715c0.139-0.268,0.162-0.425,0.335-0.499
			c0.176-0.072,0.268-0.169,0.43-0.291c0.163-0.122,0.416-0.229,0.511-0.292c0.093-0.062,0.509-0.267,0.647-0.23
			c0.139,0.037,0.231-0.013,0.116-0.219c-0.116-0.206-0.266-0.825-0.486-1.104c-0.22-0.279-0.244-0.354-0.348-0.619
			c-0.104-0.268-0.221-0.498-0.302-0.316c-0.081,0.183-0.254,0.426-0.347,0.194c-0.092-0.23-0.081-0.219-0.197-0.328
			c-0.115-0.108-0.209-0.134-0.37-0.182c-0.162-0.049-0.324,0.012-0.313,0.17C7.883,18.22,7.72,18.5,7.826,18.706
			c0.104,0.207,0.197,0.426,0.057,0.498c-0.138,0.072,0,0.511-0.138,0.497c-0.139-0.011-0.208,0.014-0.208-0.146
			c0-0.157,0.069-0.4-0.187-0.4c-0.254,0-0.405-0.133-0.59-0.267c-0.186-0.133-0.336-0.062-0.29-0.364
			c0.046-0.304-0.022-0.413,0.185-0.583c0.209-0.169,0.256-0.267,0.406-0.194c0.151,0.073,0.254,0.073,0.349-0.012
			c0.092-0.085,0.265-0.049,0.265-0.158c0-0.108-0.197-0.108-0.173-0.29c0.022-0.184,0.116-0.086,0.15-0.39
			c0.034-0.303-0.22-0.764-0.475-0.704c-0.256,0.062-0.648,0.413-0.729,0.255c-0.082-0.158-0.244-0.085-0.557,0.024
			s-1.61-0.109-1.702-0.219c0,0-0.221-0.157-0.337-0.072c-0.115,0.085-0.579,0.048-0.718,0.024c-0.14-0.024-0.267,0.157-0.439,0.098
			c-0.176-0.062-0.789-0.183-0.927-0.28c-0.141-0.097-0.35-0.097-0.44-0.145c-0.093-0.05-0.43-0.073-0.498,0.023
			c-0.069,0.097-0.324,0.268-0.452,0.388c-0.127,0.122-0.276,0.099-0.15,0.354c0.127,0.254-0.324,0.413-0.209,0.691
			c0.115,0.277-0.023,1.03,0.44,1.177c0.464,0.146,0.846,0.23,1.112,0.013c0.268-0.219,0.673-0.219,0.8,0.024
			c0.127,0.242,0.197,0.606,0.613,0.812C3.4,19.568,3.76,20.163,3.737,20.43c-0.022,0.267,0.013,1.152,0.439,1.663
			c0.43,0.51,0.87,1.433,0.903,1.214c0.035-0.219,0.035-0.438,0.129-0.28c0.091,0.159,0.335,0.645,0.729,0.729
			c0.395,0.085,0.592,0.108,0.741,0.256c0.15,0.145,0.279,0.229,0.44,0.303c0.162,0.073,0.556,0.292,0.637,0.438
			c0.082,0.146,0.047,0.34-0.035,0.559c-0.08,0.219-0.173,0.437-0.058,0.644c0.117,0.206,0.36,0.802,0.558,0.935
			c0.197,0.134,0.392,0.352,0.346,0.656c-0.046,0.301-0.266,1.6-0.243,1.892c0.024,0.29-0.265,1.249-0.034,1.638
			c0.231,0.389,0.627,0.511,0.8,0.46c0.173-0.047,0.035-0.06-0.047-0.242c-0.081-0.183-0.07-0.413,0.023-0.582
			c0.094-0.171,0.094-0.268,0.047-0.462c-0.047-0.193-0.023-0.304,0.092-0.448c0.117-0.146,0.603-0.534,0.754-0.704
			c0.149-0.17,1.101-1.336,1.228-1.434c0.127-0.097,0.416-0.327,0.51-0.69c0.093-0.364,0.428-1.08,0.197-1.264
			C11.66,25.528,10.803,25.394,10.768,25.369z"/>
		<path d="M13.084,15.125c0.066-0.128,0.226-0.451,0.312-0.628h-3.67c0.044,0.195,0.203,0.918,0.173,1.211
			c-0.035,0.341,0.07,0.22,0.162,0.354c0.093,0.133,0.07,0.34,0.012,0.497c-0.059,0.158-0.093,0.51,0.094,0.923
			c0.184,0.413,0.404,0.934,0.589,0.959c0.187,0.024,0.14,0.291,0.268,0.194c0.127-0.099,0.149-0.315,0.255-0.631
			c0.104-0.315,0.104-0.547,0.371-0.704c0.267-0.158,1.007-0.667,1.169-0.851c0.163-0.182,0.348-0.255,0.29-0.569
			C13.049,15.563,12.992,15.308,13.084,15.125z"/>
		<path d="M31.153,16.558c-0.139-0.097-0.972-0.764-1.332-0.679c-0.357,0.085-0.996-0.195-1.1-0.256
			c-0.104-0.061-0.96-0.323-1.412-0.34c-0.225-0.008-1.17-0.218-1.565-0.387c-0.394-0.17-0.729-1.007-1.481-0.874
			c-0.097,0.018-1.007,0.146-1.239,0.353c-0.23,0.207-0.336,0.448-0.463,0.497c-0.127,0.049-0.498,0.024-0.498,0.207
			c0,0.182,0.128,0.741-0.022,0.631c-0.151-0.109-0.302-0.364-0.37-0.17c-0.069,0.195-0.188,0.304-0.256,0.23
			c-0.068-0.072-0.419,0-0.464,0.122c-0.046,0.122-0.498,0.399-0.693,0.438c-0.197,0.036-0.279,0.134-0.383,0.183
			c-0.104,0.048-0.893,0.413-1.042,0.278c-0.151-0.133-0.197-0.048-0.29-0.023c0,0-0.278-0.049-0.451-0.268
			c-0.175-0.218-0.209-0.146-0.406-0.352c-0.196-0.206-0.243-0.412-0.44-0.327c-0.195,0.084-1.029,0.946-1.354,1.334
			c-0.323,0.39-0.903,0.789-0.614,1.068c0.291,0.279,0.44,0.243,0.476,0.399c0.036,0.157,0.07,0.328,0.116,0.39
			c0.046,0.061,0.324,0.278,0.463-0.013c0.141-0.292,0.162-0.497,0.325-0.448c0.162,0.048,0.196,0.158,0.114,0.376
			c-0.081,0.219-0.138,0.558-0.416,0.546c-0.278-0.012-0.578-0.183-0.673-0.146c-0.092,0.036-0.148,0.121-0.254,0.206
			c-0.104,0.085-0.429,0.485-0.649,0.546c-0.219,0.062-0.485,0.012-0.335,0.193s0.37,0.583,0.162,0.571
			c-0.208-0.013-0.556-0.048-0.579,0.158c-0.023,0.205-0.115,0.327-0.069,0.473c0.046,0.146,0.197,0.425,0.381,0.328
			c0.188-0.099,0.546-0.194,0.638-0.413c0.093-0.219,0.198-0.46,0.429-0.449c0.231,0.012,0.788,0.316,0.753,0.425
			c-0.035,0.109-0.15,0.364-0.011,0.279c0.138-0.085,0.254-0.182,0.335-0.218c0.081-0.037,0.187,0.122,0.22,0.182
			c0.035,0.062,0.267,0.182,0.313-0.013c0.047-0.194,0.093-0.047,0.23,0.013c0.141,0.062,0.557,0.109,0.613,0.158
			c0.06,0.048,0.187,0.194,0.024,0.388c-0.162,0.194-0.349,0.269-0.614,0.122c-0.267-0.146-0.557,0.122-0.856-0.024
			c-0.302-0.146-0.163-0.352-0.522-0.497c-0.357-0.146-1.169,0.035-1.425,0.108c-0.255,0.072-0.266,0.098-0.37,0.218
			c-0.104,0.122-0.787,0.91-0.787,1.359s0.254,1.664,1.076,1.542c0.823-0.122,1.321-0.049,1.229,0.193
			c-0.094,0.244-0.046,0.304,0.104,0.583c0.15,0.278,0.499,2.136,0.556,2.438c0.059,0.305-0.045,0.692,0.337,0.631
			c0.383-0.06,0.788-0.156,0.949-0.509c0.163-0.352,0.187-0.752,0.395-0.958c0.209-0.207,0.464-0.207,0.486-0.498
			c0.022-0.292-0.058-0.982,0.081-1.142c0.139-0.157,0.787-0.886,0.856-1.177c0.07-0.291,0.162-0.364-0.104-0.364
			c-0.266,0-0.718-0.036-0.847-0.279c-0.126-0.243-0.428-0.704-0.428-0.812c0-0.109,0.186-0.098,0.277,0.133
			c0.093,0.229,0.416,0.923,0.787,0.775c0.371-0.146,0.893-0.314,0.904-0.546c0.011-0.229-0.162-0.497-0.349-0.483
			c-0.186,0.012-0.382-0.122-0.382-0.255c0-0.134,0.034-0.084,0.254,0c0.222,0.085,0.29,0.229,0.626,0.255
			c0.336,0.023,0.719,0.351,0.903,0.498c0.186,0.146,0.509,1.141,0.591,1.237c0.08,0.099,0.175,0.099,0.255-0.097
			c0.082-0.195,0.429-0.812,0.626-0.984c0.197-0.17,0.208-0.399,0.323-0.254c0.116,0.146,0.614,0.51,0.649,0.729
			c0.035,0.218-0.023,0.691,0.081,0.546c0.104-0.146,0.186-0.449,0.276-0.315c0.094,0.135,0.094,0.341,0.313,0.183
			c0.221-0.157,0.603-0.219,0.395-0.559s-0.069-0.546,0.06-0.558c0.127-0.013,0.996-0.17,1.019-0.645
			c0.023-0.473-0.302-0.728-0.148-0.971c0.148-0.243,0.368-0.461,0.416-0.315c0.046,0.146-0.116,0.618,0.092,0.546
			c0.209-0.073,0.452-0.073,0.452-0.22c0-0.146-0.047-0.511,0.047-0.606c0.093-0.097,0.774-0.74,0.856-0.995
			c0.081-0.255,0.232-0.473,0.104-0.667s-0.347-0.134-0.174-0.376c0.174-0.243,0.464-0.467,0.684-0.486
			c0.703-0.061,0.505,0.809,0.516,1.002c0.014,0.194,0.014,0.681,0.117,0.438c0.104-0.243,0.225-0.541,0.434-0.747
			s0.323-0.34,0.337-0.522c0.012-0.182,0.021-0.242,0.22-0.34c0.197-0.097,1.065-0.437,1.146-0.667
			c0.08-0.229-0.104-0.438,0.104-0.424c0.208,0.011,0.405,0.242,0.51,0.121s0.336-0.339,0.324-0.461
			C31.631,16.935,31.294,16.655,31.153,16.558z"/>
		<path d="M27.414,20.636c-0.07,0.159-0.104,0.183-0.208,0.511c-0.106,0.327-0.071,0.242-0.176,0.448
			c-0.104,0.207-0.276,0.229-0.451,0.365c-0.175,0.134-0.221,0.399-0.221,0.399c-0.15,0.206,0.614-0.292,0.88-0.449
			c0.267-0.157,0.198-0.34,0.221-0.595c0.023-0.255,0.095-0.292,0.208-0.401c0.115-0.108,0.023-0.327-0.032-0.484
			C27.574,20.271,27.482,20.479,27.414,20.636z"/>
		<path d="M25.039,26.146c0.08-0.061,0.022-0.194,0.149-0.17c0.128,0.023,0.243,0.098,0.396,0.013
			c0.149-0.086,0.277-0.05,0.254-0.194c-0.022-0.146,0-0.34-0.034-0.46c-0.035-0.122-0.243-0.159-0.395-0.024
			c-0.149,0.134-0.357,0.34-0.357,0.266c0-0.071,0.091-0.266,0.045-0.388c-0.045-0.121,0.022-0.23-0.208-0.133
			c-0.232,0.097-0.359,0.073-0.44,0.207s-0.174,0.364-0.312,0.218c-0.14-0.145-0.545-0.448-0.545-0.448
			c-0.033-0.037-0.496-0.414-0.334-0.158c0.161,0.256,0.404,0.692,0.521,0.85c0.114,0.158,0.242,0.34,0.381,0.255
			c0.14-0.085,0.163-0.109,0.349,0C24.69,26.086,24.958,26.207,25.039,26.146z"/>
		<path d="M27.878,25.807c-0.222-0.097-0.129-0.183-0.396-0.23s-0.486,0-0.557-0.048c-0.07-0.049-0.416-0.17-0.37,0
			c0.047,0.171,0.359,0.218,0.439,0.267c0.081,0.049-0.115,0.158,0.034,0.242c0.15,0.084,0.255,0.243,0.452,0.194
			s0.267,0.061,0.427,0.085c0.163,0.024,0.325-0.024,0.258-0.098c-0.07-0.072-0.115-0.17-0.104-0.254
			C28.072,25.88,28.096,25.903,27.878,25.807z"/>
		<path d="M27.761,26.887c-0.081-0.243-0.278-0.691-0.323-0.474c-0.047,0.219-0.36,0.375-0.477,0.363
			c-0.106-0.011-0.046-0.121-0.046-0.219c0-0.097-0.061-0.194-0.325-0.121c-0.268,0.073-0.323,0.328-0.395,0.304
			c-0.068-0.023-0.255-0.073-0.37,0.062c-0.115,0.134-0.221,0.388-0.358,0.437c-0.141,0.049-0.604,0.109-0.604,0.305
			c0,0.193,0.117,0.484,0.105,0.643s-0.224,0.521,0.058,0.631c0.162,0.064,0.277,0.073,0.465-0.023
			c0.185-0.098,0.983-0.353,1.088-0.269c0.104,0.085,0.273,0.285,0.348,0.328c0.147,0.087,0.187,0.291,0.384,0.339
			c0.194,0.049,0.347,0.073,0.427,0.073c0.082,0,0.37-0.097,0.44-0.268c0.069-0.171,0.197-0.57,0.255-0.765
			c0.06-0.194,0.115-0.412-0.058-0.583C28.201,27.482,27.842,27.13,27.761,26.887z"/>
		<path d="M15.442,14.938c0.137,0.334,0.608,0.336,0.747,0.002c1.677-4.122,5.249-4.927,5.249-9.217
			c-0.001-3.286-2.819-5.913-6.169-5.597C11.971,0.437,9.715,3.63,10.29,6.89C10.876,10.201,13.926,11.221,15.442,14.938z
			 M15.814,2.753c1.64,0,2.969,1.33,2.969,2.969c0,1.64-1.33,2.969-2.968,2.969c-1.64,0-2.969-1.329-2.969-2.969
			S14.174,2.753,15.814,2.753z"/>
	</g>
</g>
<g>
</g>
<g>
</g>
<g>
</g>
<g>
</g>
<g>
</g>
<g>
</g>
<g>
</g>
<g>
</g>
<g>
</g>
<g>
</g>
<g>
</g>
<g>
</g>
<g>
</g>
<g>
</g>
<g>
</g>
</svg>
